<svg width="26" height="26" viewBox="0 0 26 26" fill="none" xmlns="http://www.w3.org/2000/svg">
<path d="M13.503 13.8301C11.4113 14.9822 10.0029 17.1327 10.0029 19.5974C10.0029 19.6855 10.0042 19.773 10.008 19.8599C10.1792 24.0467 16.8268 24.0467 16.998 19.8599C17.0018 19.773 17.0031 19.6855 17.0031 19.5974C17.0038 17.1327 15.5948 14.9822 13.503 13.8301V13.8301Z" fill="white"/>
<path d="M7.26973 3C4.71849 4.3789 3 6.9527 3 9.9025C3 10.008 3.00234 10.1127 3.00701 10.2174C3.21501 15.2276 11.3237 15.2276 11.5325 10.2174C11.5364 10.1127 11.5387 10.008 11.5387 9.9025C11.5387 6.9527 9.82098 4.3789 7.26973 3V3Z" fill="white"/>
<path d="M19.3092 5.74316C17.4243 6.77734 16.1553 8.70769 16.1553 10.92C16.1553 10.9991 16.157 11.0777 16.1599 11.1562C16.3141 14.9138 22.3043 14.9138 22.4585 11.1562C22.462 11.0777 22.4631 10.9991 22.4631 10.92C22.4637 8.70769 21.1947 6.77734 19.3092 5.74316V5.74316Z" fill="white"/>
</svg>
