<svg width="83" height="139" viewBox="0 0 83 139" fill="none" xmlns="http://www.w3.org/2000/svg">
<mask id="mask0_1056_5722" style="mask-type:alpha" maskUnits="userSpaceOnUse" x="0" y="0" width="83" height="139">
<path d="M0 41.7244C0 18.8918 18.5095 0.382324 41.3421 0.382324C64.1747 0.382324 82.6842 18.8918 82.6842 41.7244V95.8365C82.6842 103.502 81.6747 111.135 79.6818 118.537C76.4314 130.61 65.4841 139 52.9813 139H29.7029C17.2001 139 6.25283 130.61 3.00243 118.537C1.00949 111.135 0 103.502 0 95.8365V41.7244Z" fill="#E7E7E7"/>
</mask>
<g mask="url(#mask0_1056_5722)">
<path d="M0 41.7244C0 18.8918 18.5095 0.382324 41.3421 0.382324C64.1747 0.382324 82.6842 18.8918 82.6842 41.7244V93.715C82.6842 102.789 81.4893 111.824 79.1303 120.586C76.2053 131.45 66.354 139 55.1028 139H27.5814C16.3303 139 6.47897 131.45 3.55397 120.586C1.19493 111.824 0 102.789 0 93.715V41.7244Z" fill="#E7E7E7"/>
<path opacity="0.1" d="M0 41.7244C0 18.8918 18.5095 0.382324 41.3421 0.382324C64.1747 0.382324 82.6842 18.8918 82.6842 41.7244V93.715C82.6842 102.789 81.4893 111.824 79.1303 120.586C76.2053 131.45 66.354 139 55.1028 139H27.5814C16.3303 139 6.47897 131.45 3.55397 120.586C1.19493 111.824 0 102.789 0 93.715V41.7244Z" fill="url(#paint0_linear_1056_5722)"/>
<path opacity="0.6" d="M0 41.7244C0 18.8918 18.5095 0.382324 41.3421 0.382324C64.1747 0.382324 82.6842 18.8918 82.6842 41.7244V93.715C82.6842 102.789 81.4893 111.824 79.1303 120.586C76.2053 131.45 66.354 139 55.1028 139H27.5814C16.3303 139 6.47897 131.45 3.55397 120.586C1.19493 111.824 0 102.789 0 93.715V41.7244Z" fill="url(#paint1_linear_1056_5722)"/>
<g filter="url(#filter0_f_1056_5722)">
<path d="M0 41.7244C0 18.8918 18.5095 0.382324 41.3421 0.382324C64.1747 0.382324 82.6842 18.8918 82.6842 41.7244V93.715C82.6842 102.789 81.4893 111.824 79.1303 120.586C76.2053 131.45 66.354 139 55.1028 139H27.5814C16.3303 139 6.47897 131.45 3.55397 120.586C1.19493 111.824 0 102.789 0 93.715V41.7244Z" fill="url(#paint2_linear_1056_5722)"/>
</g>
<g style="mix-blend-mode:hard-light" opacity="0.6">
<path d="M-0.608398 112.117C10.9431 114.954 42.5576 120.629 82.6838 112.117" stroke="#5F5B5B" stroke-width="0.613953"/>
</g>
</g>
<g opacity="0.4">
<rect opacity="0.5" x="24.6528" y="65.9286" width="33.378" height="19.4475" rx="9.72373" fill="#D9D9D9" stroke="#D8D8D8" stroke-width="1.02326"/>
<mask id="mask1_1056_5722" style="mask-type:alpha" maskUnits="userSpaceOnUse" x="25" y="66" width="33" height="19">
<rect x="25.1644" y="66.4402" width="32.3547" height="18.4242" rx="9.2121" fill="#D9D9D9"/>
</mask>
<g mask="url(#mask1_1056_5722)">
<g filter="url(#filter1_i_1056_5722)">
<rect x="21.8867" y="60.3601" width="38.9102" height="30.3986" rx="8.18605" fill="#C4C4C4"/>
</g>
<g opacity="0.8" filter="url(#filter2_f_1056_5722)">
<path d="M35.4636 90.5965C35.1365 88.2689 36.7581 86.1169 39.0857 85.7898L71.5967 81.2207C73.9242 80.8935 76.0762 82.5152 76.4033 84.8428C76.7305 87.1703 75.1088 89.3223 72.7813 89.6494L40.2702 94.2186C37.9427 94.5457 35.7907 92.924 35.4636 90.5965Z" fill="#E2E2E2"/>
</g>
<g opacity="0.7" filter="url(#filter3_f_1056_5722)">
<path d="M50.9094 48.5146C52.0489 50.5703 51.3062 53.1606 49.2504 54.3001L20.5362 70.2166C18.4805 71.3561 15.8903 70.6134 14.7508 68.5577C13.6113 66.5019 14.354 63.9117 16.4097 62.7722L45.1239 46.8556C47.1797 45.7161 49.7699 46.4589 50.9094 48.5146Z" fill="#BDBBBB"/>
</g>
</g>
</g>
<g opacity="0.65">
<mask id="path-12-outside-1_1056_5722" maskUnits="userSpaceOnUse" x="31.9619" y="70.9336" width="20" height="11" fill="black">
<rect fill="white" x="31.9619" y="70.9336" width="20" height="11"/>
<path d="M34.4285 78.9476L33.7805 78.3296V76.8536L34.4285 76.2656V78.9476ZM34.4105 73.3736V76.0556L33.7625 75.4736V73.9916L34.4105 73.3736ZM38.2041 78.9476L37.5561 78.3296V76.8536L38.2041 76.2656V78.9476ZM38.1861 73.3736V76.0556L37.5381 75.4736V73.9916L38.1861 73.3736ZM40.0656 76.2056H40.8216V76.9556H40.0656V76.2056ZM40.0656 74.4236H40.8216V75.1916H40.0656V74.4236ZM42.8812 79.2116L43.4992 78.5636H44.9812L45.5632 79.2116H42.8812ZM42.7012 76.2656L43.3492 76.8896V78.3596L42.7012 78.9476V76.2656ZM45.7552 78.9476L45.1072 78.3296V76.8536L45.7552 76.2656V78.9476ZM42.8752 73.1156H45.5572L44.9632 73.7636H43.4932L42.8752 73.1156ZM42.6832 76.0556V73.3736L43.3312 73.9556V75.4436L42.6832 76.0556ZM45.7372 73.3736V76.0556L45.0892 75.4736V73.9916L45.7372 73.3736ZM46.6568 79.2116L47.2748 78.5636H48.7568L49.3388 79.2116H46.6568ZM46.4768 76.2656L47.1248 76.8896V78.3596L46.4768 78.9476V76.2656ZM49.5308 78.9476L48.8828 78.3296V76.8536L49.5308 76.2656V78.9476ZM47.1728 76.4816C47.0328 76.3696 46.8908 76.2596 46.7468 76.1516L47.1728 75.8336H48.8108L49.2308 76.1516L48.8108 76.4816H47.1728ZM46.6508 73.1156H49.3328L48.7388 73.7636H47.2688L46.6508 73.1156ZM46.4588 76.0556V73.3736L47.1068 73.9556V75.4436L46.4588 76.0556ZM49.5128 73.3736V76.0556L48.8648 75.4736V73.9916L49.5128 73.3736Z"/>
</mask>
<path d="M34.4285 78.9476L33.7805 78.3296V76.8536L34.4285 76.2656V78.9476ZM34.4105 73.3736V76.0556L33.7625 75.4736V73.9916L34.4105 73.3736ZM38.2041 78.9476L37.5561 78.3296V76.8536L38.2041 76.2656V78.9476ZM38.1861 73.3736V76.0556L37.5381 75.4736V73.9916L38.1861 73.3736ZM40.0656 76.2056H40.8216V76.9556H40.0656V76.2056ZM40.0656 74.4236H40.8216V75.1916H40.0656V74.4236ZM42.8812 79.2116L43.4992 78.5636H44.9812L45.5632 79.2116H42.8812ZM42.7012 76.2656L43.3492 76.8896V78.3596L42.7012 78.9476V76.2656ZM45.7552 78.9476L45.1072 78.3296V76.8536L45.7552 76.2656V78.9476ZM42.8752 73.1156H45.5572L44.9632 73.7636H43.4932L42.8752 73.1156ZM42.6832 76.0556V73.3736L43.3312 73.9556V75.4436L42.6832 76.0556ZM45.7372 73.3736V76.0556L45.0892 75.4736V73.9916L45.7372 73.3736ZM46.6568 79.2116L47.2748 78.5636H48.7568L49.3388 79.2116H46.6568ZM46.4768 76.2656L47.1248 76.8896V78.3596L46.4768 78.9476V76.2656ZM49.5308 78.9476L48.8828 78.3296V76.8536L49.5308 76.2656V78.9476ZM47.1728 76.4816C47.0328 76.3696 46.8908 76.2596 46.7468 76.1516L47.1728 75.8336H48.8108L49.2308 76.1516L48.8108 76.4816H47.1728ZM46.6508 73.1156H49.3328L48.7388 73.7636H47.2688L46.6508 73.1156ZM46.4588 76.0556V73.3736L47.1068 73.9556V75.4436L46.4588 76.0556ZM49.5128 73.3736V76.0556L48.8648 75.4736V73.9916L49.5128 73.3736Z" fill="url(#paint3_linear_1056_5722)"/>
<path d="M34.4285 78.9476L33.7223 79.6881L35.4517 81.3375V78.9476H34.4285ZM33.7805 78.3296H32.7572V78.7677L33.0743 79.0701L33.7805 78.3296ZM33.7805 76.8536L33.0929 76.0958L32.7572 76.4004V76.8536H33.7805ZM34.4285 76.2656H35.4517V73.9554L33.7409 75.5078L34.4285 76.2656ZM34.4105 73.3736H35.4337V70.9837L33.7043 72.6331L34.4105 73.3736ZM34.4105 76.0556L33.7267 76.8169L35.4337 78.35V76.0556H34.4105ZM33.7625 75.4736H32.7392V75.9299L33.0787 76.2349L33.7625 75.4736ZM33.7625 73.9916L33.0563 73.2511L32.7392 73.5535V73.9916H33.7625ZM35.1347 78.2071L34.4867 77.5891L33.0743 79.0701L33.7223 79.6881L35.1347 78.2071ZM34.8037 78.3296V76.8536H32.7572V78.3296H34.8037ZM34.4681 77.6114L35.1161 77.0234L33.7409 75.5078L33.0929 76.0958L34.4681 77.6114ZM33.4052 76.2656V78.9476H35.4517V76.2656H33.4052ZM33.3872 73.3736V76.0556H35.4337V73.3736H33.3872ZM35.0942 75.2943L34.4462 74.7123L33.0787 76.2349L33.7267 76.8169L35.0942 75.2943ZM34.7857 75.4736V73.9916H32.7392V75.4736H34.7857ZM34.4687 74.7321L35.1167 74.1141L33.7043 72.6331L33.0563 73.2511L34.4687 74.7321ZM38.2041 78.9476L37.4978 79.6881L39.2273 81.3375V78.9476H38.2041ZM37.5561 78.3296H36.5328V78.7677L36.8498 79.0701L37.5561 78.3296ZM37.5561 76.8536L36.8684 76.0958L36.5328 76.4004V76.8536H37.5561ZM38.2041 76.2656H39.2273V73.9554L37.5164 75.5078L38.2041 76.2656ZM38.1861 73.3736H39.2093V70.9837L37.4798 72.6331L38.1861 73.3736ZM38.1861 76.0556L37.5023 76.8169L39.2093 78.35V76.0556H38.1861ZM37.5381 75.4736H36.5148V75.9299L36.8543 76.2349L37.5381 75.4736ZM37.5381 73.9916L36.8318 73.2511L36.5148 73.5535V73.9916H37.5381ZM38.9103 78.2071L38.2623 77.5891L36.8498 79.0701L37.4978 79.6881L38.9103 78.2071ZM38.5793 78.3296V76.8536H36.5328V78.3296H38.5793ZM38.2437 77.6114L38.8917 77.0234L37.5164 75.5078L36.8684 76.0958L38.2437 77.6114ZM37.1808 76.2656V78.9476H39.2273V76.2656H37.1808ZM37.1628 73.3736V76.0556H39.2093V73.3736H37.1628ZM38.8698 75.2943L38.2218 74.7123L36.8543 76.2349L37.5023 76.8169L38.8698 75.2943ZM38.5613 75.4736V73.9916H36.5148V75.4736H38.5613ZM38.2443 74.7321L38.8923 74.1141L37.4798 72.6331L36.8318 73.2511L38.2443 74.7321ZM40.0656 76.2056V75.1823H39.0424V76.2056H40.0656ZM40.8216 76.2056H41.8449V75.1823H40.8216V76.2056ZM40.8216 76.9556V77.9788H41.8449V76.9556H40.8216ZM40.0656 76.9556H39.0424V77.9788H40.0656V76.9556ZM40.0656 74.4236V73.4003H39.0424V74.4236H40.0656ZM40.8216 74.4236H41.8449V73.4003H40.8216V74.4236ZM40.8216 75.1916V76.2148H41.8449V75.1916H40.8216ZM40.0656 75.1916H39.0424V76.2148H40.0656V75.1916ZM40.0656 77.2288H40.8216V75.1823H40.0656V77.2288ZM39.7984 76.2056V76.9556H41.8449V76.2056H39.7984ZM40.8216 75.9323H40.0656V77.9788H40.8216V75.9323ZM41.0889 76.9556V76.2056H39.0424V76.9556H41.0889ZM40.0656 75.4468H40.8216V73.4003H40.0656V75.4468ZM39.7984 74.4236V75.1916H41.8449V74.4236H39.7984ZM40.8216 74.1683H40.0656V76.2148H40.8216V74.1683ZM41.0889 75.1916V74.4236H39.0424V75.1916H41.0889ZM42.8812 79.2116L42.1407 78.5054L40.4913 80.2348H42.8812V79.2116ZM43.4992 78.5636V77.5403H43.0611L42.7587 77.8574L43.4992 78.5636ZM44.9812 78.5636L45.7425 77.8799L45.4375 77.5403H44.9812V78.5636ZM45.5632 79.2116V80.2348H47.8576L46.3245 78.5279L45.5632 79.2116ZM42.7012 76.2656L43.411 75.5285L41.6779 73.8597V76.2656H42.7012ZM43.3492 76.8896H44.3725V76.4544L44.059 76.1525L43.3492 76.8896ZM43.3492 78.3596L44.0368 79.1174L44.3725 78.8128V78.3596H43.3492ZM42.7012 78.9476H41.6779V81.2578L43.3888 79.7054L42.7012 78.9476ZM45.7552 78.9476L45.049 79.6881L46.7785 81.3375V78.9476H45.7552ZM45.1072 78.3296H44.0839V78.7677L44.401 79.0701L45.1072 78.3296ZM45.1072 76.8536L44.4196 76.0958L44.0839 76.4004V76.8536H45.1072ZM45.7552 76.2656H46.7785V73.9554L45.0676 75.5078L45.7552 76.2656ZM42.8752 73.1156V72.0923H40.4853L42.1347 73.8218L42.8752 73.1156ZM45.5572 73.1156L46.3115 73.807L47.8833 72.0923H45.5572V73.1156ZM44.9632 73.7636V74.7868H45.4133L45.7175 74.455L44.9632 73.7636ZM43.4932 73.7636L42.7527 74.4698L43.0551 74.7868H43.4932V73.7636ZM42.6832 76.0556H41.6599V78.4295L43.3858 76.7995L42.6832 76.0556ZM42.6832 73.3736L43.3669 72.6123L41.6599 71.0792V73.3736H42.6832ZM43.3312 73.9556H44.3545V73.4992L44.0149 73.1943L43.3312 73.9556ZM43.3312 75.4436L44.0338 76.1875L44.3545 75.8847V75.4436H43.3312ZM45.7372 73.3736H46.7605V70.9837L45.031 72.6331L45.7372 73.3736ZM45.7372 76.0556L45.0535 76.8169L46.7605 78.35V76.0556H45.7372ZM45.0892 75.4736H44.0659V75.9299L44.4055 76.2349L45.0892 75.4736ZM45.0892 73.9916L44.383 73.2511L44.0659 73.5535V73.9916H45.0892ZM43.6217 79.9178L44.2397 79.2698L42.7587 77.8574L42.1407 78.5054L43.6217 79.9178ZM43.4992 79.5868H44.9812V77.5403H43.4992V79.5868ZM44.2199 79.2473L44.8019 79.8953L46.3245 78.5279L45.7425 77.8799L44.2199 79.2473ZM45.5632 78.1883H42.8812V80.2348H45.5632V78.1883ZM41.9914 77.0027L42.6394 77.6267L44.059 76.1525L43.411 75.5285L41.9914 77.0027ZM42.3259 76.8896V78.3596H44.3725V76.8896H42.3259ZM42.6616 77.6018L42.0136 78.1898L43.3888 79.7054L44.0368 79.1174L42.6616 77.6018ZM43.7245 78.9476V76.2656H41.6779V78.9476H43.7245ZM46.4614 78.2071L45.8134 77.5891L44.401 79.0701L45.049 79.6881L46.4614 78.2071ZM46.1305 78.3296V76.8536H44.0839V78.3296H46.1305ZM45.7948 77.6114L46.4428 77.0234L45.0676 75.5078L44.4196 76.0958L45.7948 77.6114ZM44.7319 76.2656V78.9476H46.7785V76.2656H44.7319ZM42.8752 74.1388H45.5572V72.0923H42.8752V74.1388ZM44.8029 72.4242L44.2089 73.0722L45.7175 74.455L46.3115 73.807L44.8029 72.4242ZM44.9632 72.7403H43.4932V74.7868H44.9632V72.7403ZM44.2337 73.0574L43.6157 72.4094L42.1347 73.8218L42.7527 74.4698L44.2337 73.0574ZM43.7065 76.0556V73.3736H41.6599V76.0556H43.7065ZM41.9995 74.1349L42.6475 74.7169L44.0149 73.1943L43.3669 72.6123L41.9995 74.1349ZM42.3079 73.9556V75.4436H44.3545V73.9556H42.3079ZM42.6286 74.6997L41.9806 75.3117L43.3858 76.7995L44.0338 76.1875L42.6286 74.6997ZM44.7139 73.3736V76.0556H46.7605V73.3736H44.7139ZM46.4209 75.2943L45.7729 74.7123L44.4055 76.2349L45.0535 76.8169L46.4209 75.2943ZM46.1125 75.4736V73.9916H44.0659V75.4736H46.1125ZM45.7954 74.7321L46.4434 74.1141L45.031 72.6331L44.383 73.2511L45.7954 74.7321ZM46.6568 79.2116L45.9163 78.5054L44.2669 80.2348H46.6568V79.2116ZM47.2748 78.5636V77.5403H46.8367L46.5343 77.8574L47.2748 78.5636ZM48.7568 78.5636L49.518 77.8799L49.2131 77.5403H48.7568V78.5636ZM49.3388 79.2116V80.2348H51.6332L50.1 78.5279L49.3388 79.2116ZM46.4768 76.2656L47.1865 75.5285L45.4535 73.8597V76.2656H46.4768ZM47.1248 76.8896H48.148V76.4544L47.8345 76.1525L47.1248 76.8896ZM47.1248 78.3596L47.8124 79.1174L48.148 78.8128V78.3596H47.1248ZM46.4768 78.9476H45.4535V81.2578L47.1644 79.7054L46.4768 78.9476ZM49.5308 78.9476L48.8246 79.6881L50.554 81.3375V78.9476H49.5308ZM48.8828 78.3296H47.8595V78.7677L48.1766 79.0701L48.8828 78.3296ZM48.8828 76.8536L48.1952 76.0958L47.8595 76.4004V76.8536H48.8828ZM49.5308 76.2656H50.554V73.9554L48.8432 75.5078L49.5308 76.2656ZM47.1728 76.4816L46.5335 77.2806L46.8138 77.5048H47.1728V76.4816ZM46.7468 76.1516L46.1347 75.3316L45.0388 76.1497L46.1328 76.9702L46.7468 76.1516ZM47.1728 75.8336V74.8103H46.833L46.5607 75.0136L47.1728 75.8336ZM48.8108 75.8336L49.4284 75.0178L49.1544 74.8103H48.8108V75.8336ZM49.2308 76.1516L49.863 76.9562L50.9061 76.1366L49.8484 75.3358L49.2308 76.1516ZM48.8108 76.4816V77.5048H49.1647L49.443 77.2862L48.8108 76.4816ZM46.6508 73.1156V72.0923H44.2609L45.9103 73.8218L46.6508 73.1156ZM49.3328 73.1156L50.0871 73.807L51.6589 72.0923H49.3328V73.1156ZM48.7388 73.7636V74.7868H49.1889L49.4931 74.455L48.7388 73.7636ZM47.2688 73.7636L46.5283 74.4698L46.8307 74.7868H47.2688V73.7636ZM46.4588 76.0556H45.4355V78.4295L47.1614 76.7995L46.4588 76.0556ZM46.4588 73.3736L47.1425 72.6123L45.4355 71.0792V73.3736H46.4588ZM47.1068 73.9556H48.13V73.4992L47.7905 73.1943L47.1068 73.9556ZM47.1068 75.4436L47.8094 76.1875L48.13 75.8847V75.4436H47.1068ZM49.5128 73.3736H50.536V70.9837L48.8066 72.6331L49.5128 73.3736ZM49.5128 76.0556L48.829 76.8169L50.536 78.35V76.0556H49.5128ZM48.8648 75.4736H47.8415V75.9299L48.181 76.2349L48.8648 75.4736ZM48.8648 73.9916L48.1586 73.2511L47.8415 73.5535V73.9916H48.8648ZM47.3973 79.9178L48.0153 79.2698L46.5343 77.8574L45.9163 78.5054L47.3973 79.9178ZM47.2748 79.5868H48.7568V77.5403H47.2748V79.5868ZM47.9955 79.2473L48.5775 79.8953L50.1 78.5279L49.518 77.8799L47.9955 79.2473ZM49.3388 78.1883H46.6568V80.2348H49.3388V78.1883ZM45.767 77.0027L46.415 77.6267L47.8345 76.1525L47.1865 75.5285L45.767 77.0027ZM46.1015 76.8896V78.3596H48.148V76.8896H46.1015ZM46.4372 77.6018L45.7892 78.1898L47.1644 79.7054L47.8124 79.1174L46.4372 77.6018ZM47.5 78.9476V76.2656H45.4535V78.9476H47.5ZM50.237 78.2071L49.589 77.5891L48.1766 79.0701L48.8246 79.6881L50.237 78.2071ZM49.906 78.3296V76.8536H47.8595V78.3296H49.906ZM49.5704 77.6114L50.2184 77.0234L48.8432 75.5078L48.1952 76.0958L49.5704 77.6114ZM48.5075 76.2656V78.9476H50.554V76.2656H48.5075ZM47.812 75.6826C47.6636 75.5639 47.5132 75.4474 47.3607 75.333L46.1328 76.9702C46.2683 77.0718 46.4019 77.1753 46.5335 77.2806L47.812 75.6826ZM47.3589 76.9716L47.7849 76.6536L46.5607 75.0136L46.1347 75.3316L47.3589 76.9716ZM47.1728 76.8568H48.8108V74.8103H47.1728V76.8568ZM48.1931 76.6494L48.6131 76.9674L49.8484 75.3358L49.4284 75.0178L48.1931 76.6494ZM48.5986 75.347L48.1786 75.677L49.443 77.2862L49.863 76.9562L48.5986 75.347ZM48.8108 75.4583H47.1728V77.5048H48.8108V75.4583ZM46.6508 74.1388H49.3328V72.0923H46.6508V74.1388ZM48.5785 72.4242L47.9845 73.0722L49.4931 74.455L50.0871 73.807L48.5785 72.4242ZM48.7388 72.7403H47.2688V74.7868H48.7388V72.7403ZM48.0093 73.0574L47.3913 72.4094L45.9103 73.8218L46.5283 74.4698L48.0093 73.0574ZM47.482 76.0556V73.3736H45.4355V76.0556H47.482ZM45.775 74.1349L46.423 74.7169L47.7905 73.1943L47.1425 72.6123L45.775 74.1349ZM46.0835 73.9556V75.4436H48.13V73.9556H46.0835ZM46.4042 74.6997L45.7562 75.3117L47.1614 76.7995L47.8094 76.1875L46.4042 74.6997ZM48.4895 73.3736V76.0556H50.536V73.3736H48.4895ZM50.1965 75.2943L49.5485 74.7123L48.181 76.2349L48.829 76.8169L50.1965 75.2943ZM49.888 75.4736V73.9916H47.8415V75.4736H49.888ZM49.571 74.7321L50.219 74.1141L48.8066 72.6331L48.1586 73.2511L49.571 74.7321Z" fill="white" fill-opacity="0.22" mask="url(#path-12-outside-1_1056_5722)"/>
</g>
<g filter="url(#filter4_d_1056_5722)">
<circle cx="41.3421" cy="46.6674" r="8.53805" fill="#232323"/>
</g>
<g filter="url(#filter5_i_1056_5722)">
<circle cx="41.3423" cy="46.6672" r="7.18993" fill="#171717"/>
</g>
<circle cx="41.3419" cy="46.6677" r="3.59497" fill="#232323"/>
<mask id="mask2_1056_5722" style="mask-type:alpha" maskUnits="userSpaceOnUse" x="38" y="43" width="7" height="7">
<circle cx="41.3417" cy="46.6676" r="3.1456" fill="#171717"/>
</mask>
<g mask="url(#mask2_1056_5722)">
<g filter="url(#filter6_if_1056_5722)">
<circle cx="41.3417" cy="46.6676" r="3.1456" fill="#171717"/>
</g>
<g filter="url(#filter7_f_1056_5722)">
<path d="M42.749 46.8185C42.2186 45.7635 41.2904 45.1481 40.8926 44.9722C40.8926 44.5502 40.8042 44.9527 40.8926 44.645C41.6882 44.9527 43.6242 44.7612 43.9424 46.0272C44.3403 47.6098 43.412 48.1373 42.749 46.8185Z" fill="#EFE9FF"/>
</g>
<g opacity="0.3" filter="url(#filter8_f_1056_5722)">
<path d="M40.4535 47.1545C41.0885 48.1501 42.0745 48.6678 42.4881 48.8023C42.531 49.2221 42.578 48.8127 42.5214 49.1278C41.6986 48.9026 39.7922 49.2901 39.3468 48.0631C38.79 46.5293 39.6597 45.91 40.4535 47.1545Z" fill="#C6FFE0"/>
</g>
</g>
<g filter="url(#filter9_f_1056_5722)">
<circle cx="35.146" cy="108.146" r="1.14605" fill="#FFF5BF"/>
</g>
<circle opacity="0.4" cx="35.146" cy="108.146" r="1.14605" fill="#FFF5BF"/>
<g filter="url(#filter10_f_1056_5722)">
<circle cx="40.8762" cy="108.146" r="1.14605" fill="#958CFF"/>
</g>
<circle opacity="0.4" cx="40.8762" cy="108.146" r="1.14605" fill="#958CFF"/>
<g filter="url(#filter11_f_1056_5722)">
<circle cx="46.6066" cy="108.146" r="1.14605" fill="#57A9F5"/>
</g>
<circle opacity="0.4" cx="46.6066" cy="108.146" r="1.14605" fill="#57A9F5"/>
<defs>
<filter id="filter0_f_1056_5722" x="-10.2326" y="-9.85023" width="103.149" height="159.083" filterUnits="userSpaceOnUse" color-interpolation-filters="sRGB">
<feFlood flood-opacity="0" result="BackgroundImageFix"/>
<feBlend mode="normal" in="SourceGraphic" in2="BackgroundImageFix" result="shape"/>
<feGaussianBlur stdDeviation="5.11628" result="effect1_foregroundBlur_1056_5722"/>
</filter>
<filter id="filter1_i_1056_5722" x="21.8867" y="60.3601" width="46.073" height="30.3987" filterUnits="userSpaceOnUse" color-interpolation-filters="sRGB">
<feFlood flood-opacity="0" result="BackgroundImageFix"/>
<feBlend mode="normal" in="SourceGraphic" in2="BackgroundImageFix" result="shape"/>
<feColorMatrix in="SourceAlpha" type="matrix" values="0 0 0 0 0 0 0 0 0 0 0 0 0 0 0 0 0 0 127 0" result="hardAlpha"/>
<feOffset dx="7.16279"/>
<feGaussianBlur stdDeviation="3.5814"/>
<feComposite in2="hardAlpha" operator="arithmetic" k2="-1" k3="1"/>
<feColorMatrix type="matrix" values="0 0 0 0 1 0 0 0 0 1 0 0 0 0 1 0 0 0 0.1 0"/>
<feBlend mode="normal" in2="shape" result="effect1_innerShadow_1056_5722"/>
</filter>
<filter id="filter2_f_1056_5722" x="25.1891" y="70.9462" width="61.4888" height="33.5469" filterUnits="userSpaceOnUse" color-interpolation-filters="sRGB">
<feFlood flood-opacity="0" result="BackgroundImageFix"/>
<feBlend mode="normal" in="SourceGraphic" in2="BackgroundImageFix" result="shape"/>
<feGaussianBlur stdDeviation="5.11628" result="effect1_foregroundBlur_1056_5722"/>
</filter>
<filter id="filter3_f_1056_5722" x="3.98387" y="36.0887" width="57.6925" height="44.8948" filterUnits="userSpaceOnUse" color-interpolation-filters="sRGB">
<feFlood flood-opacity="0" result="BackgroundImageFix"/>
<feBlend mode="normal" in="SourceGraphic" in2="BackgroundImageFix" result="shape"/>
<feGaussianBlur stdDeviation="5.11628" result="effect1_foregroundBlur_1056_5722"/>
</filter>
<filter id="filter4_d_1056_5722" x="32.8041" y="38.1294" width="19.1226" height="19.1227" filterUnits="userSpaceOnUse" color-interpolation-filters="sRGB">
<feFlood flood-opacity="0" result="BackgroundImageFix"/>
<feColorMatrix in="SourceAlpha" type="matrix" values="0 0 0 0 0 0 0 0 0 0 0 0 0 0 0 0 0 0 127 0" result="hardAlpha"/>
<feOffset dx="1.02326" dy="1.02326"/>
<feGaussianBlur stdDeviation="0.511628"/>
<feComposite in2="hardAlpha" operator="out"/>
<feColorMatrix type="matrix" values="0 0 0 0 0 0 0 0 0 0 0 0 0 0 0 0 0 0 0.52 0"/>
<feBlend mode="normal" in2="BackgroundImageFix" result="effect1_dropShadow_1056_5722"/>
<feBlend mode="normal" in="SourceGraphic" in2="effect1_dropShadow_1056_5722" result="shape"/>
</filter>
<filter id="filter5_i_1056_5722" x="34.1523" y="39.4773" width="14.3799" height="14.3799" filterUnits="userSpaceOnUse" color-interpolation-filters="sRGB">
<feFlood flood-opacity="0" result="BackgroundImageFix"/>
<feBlend mode="normal" in="SourceGraphic" in2="BackgroundImageFix" result="shape"/>
<feColorMatrix in="SourceAlpha" type="matrix" values="0 0 0 0 0 0 0 0 0 0 0 0 0 0 0 0 0 0 127 0" result="hardAlpha"/>
<feOffset dx="1.02326" dy="1.02326"/>
<feComposite in2="hardAlpha" operator="arithmetic" k2="-1" k3="1"/>
<feColorMatrix type="matrix" values="0 0 0 0 0.836898 0 0 0 0 0.82675 0 0 0 0 0.82675 0 0 0 0.21 0"/>
<feBlend mode="normal" in2="shape" result="effect1_innerShadow_1056_5722"/>
</filter>
<filter id="filter6_if_1056_5722" x="37.1729" y="42.4987" width="8.33771" height="8.33777" filterUnits="userSpaceOnUse" color-interpolation-filters="sRGB">
<feFlood flood-opacity="0" result="BackgroundImageFix"/>
<feBlend mode="normal" in="SourceGraphic" in2="BackgroundImageFix" result="shape"/>
<feColorMatrix in="SourceAlpha" type="matrix" values="0 0 0 0 0 0 0 0 0 0 0 0 0 0 0 0 0 0 127 0" result="hardAlpha"/>
<feOffset dx="1.02326" dy="1.02326"/>
<feComposite in2="hardAlpha" operator="arithmetic" k2="-1" k3="1"/>
<feColorMatrix type="matrix" values="0 0 0 0 1 0 0 0 0 1 0 0 0 0 1 0 0 0 0.4 0"/>
<feBlend mode="normal" in2="shape" result="effect1_innerShadow_1056_5722"/>
<feGaussianBlur stdDeviation="0.511628" result="effect2_foregroundBlur_1056_5722"/>
</filter>
<filter id="filter7_f_1056_5722" x="37.7836" y="41.5753" width="9.32441" height="9.06043" filterUnits="userSpaceOnUse" color-interpolation-filters="sRGB">
<feFlood flood-opacity="0" result="BackgroundImageFix"/>
<feBlend mode="normal" in="SourceGraphic" in2="BackgroundImageFix" result="shape"/>
<feGaussianBlur stdDeviation="1.53488" result="effect1_foregroundBlur_1056_5722"/>
</filter>
<filter id="filter8_f_1056_5722" x="34.0541" y="41.3742" width="13.6096" height="12.8698" filterUnits="userSpaceOnUse" color-interpolation-filters="sRGB">
<feFlood flood-opacity="0" result="BackgroundImageFix"/>
<feBlend mode="normal" in="SourceGraphic" in2="BackgroundImageFix" result="shape"/>
<feGaussianBlur stdDeviation="2.55814" result="effect1_foregroundBlur_1056_5722"/>
</filter>
<filter id="filter9_f_1056_5722" x="31.7079" y="104.708" width="6.8763" height="6.87618" filterUnits="userSpaceOnUse" color-interpolation-filters="sRGB">
<feFlood flood-opacity="0" result="BackgroundImageFix"/>
<feBlend mode="normal" in="SourceGraphic" in2="BackgroundImageFix" result="shape"/>
<feGaussianBlur stdDeviation="1.14605" result="effect1_foregroundBlur_1056_5722"/>
</filter>
<filter id="filter10_f_1056_5722" x="37.4381" y="104.708" width="6.8763" height="6.87618" filterUnits="userSpaceOnUse" color-interpolation-filters="sRGB">
<feFlood flood-opacity="0" result="BackgroundImageFix"/>
<feBlend mode="normal" in="SourceGraphic" in2="BackgroundImageFix" result="shape"/>
<feGaussianBlur stdDeviation="1.14605" result="effect1_foregroundBlur_1056_5722"/>
</filter>
<filter id="filter11_f_1056_5722" x="43.1685" y="104.708" width="6.8763" height="6.87618" filterUnits="userSpaceOnUse" color-interpolation-filters="sRGB">
<feFlood flood-opacity="0" result="BackgroundImageFix"/>
<feBlend mode="normal" in="SourceGraphic" in2="BackgroundImageFix" result="shape"/>
<feGaussianBlur stdDeviation="1.14605" result="effect1_foregroundBlur_1056_5722"/>
</filter>
<linearGradient id="paint0_linear_1056_5722" x1="1.89371e-07" y1="75.7709" x2="77.2125" y2="66.6513" gradientUnits="userSpaceOnUse">
<stop stop-color="#E7E7E7" stop-opacity="0"/>
<stop offset="1" stop-color="#818181"/>
</linearGradient>
<linearGradient id="paint1_linear_1056_5722" x1="43.774" y1="69.6912" x2="93.6277" y2="53.8839" gradientUnits="userSpaceOnUse">
<stop stop-color="#E7E7E7" stop-opacity="0"/>
<stop offset="1" stop-color="#818181"/>
</linearGradient>
<linearGradient id="paint2_linear_1056_5722" x1="1.89371e-07" y1="75.7709" x2="77.2125" y2="66.6513" gradientUnits="userSpaceOnUse">
<stop stop-color="#E7E7E7" stop-opacity="0"/>
<stop offset="1" stop-color="#818181"/>
</linearGradient>
<linearGradient id="paint3_linear_1056_5722" x1="28.9841" y1="81.55" x2="53.1125" y2="71.8613" gradientUnits="userSpaceOnUse">
<stop stop-color="#FFF4CC"/>
<stop offset="1" stop-color="#C4FFAF"/>
</linearGradient>
</defs>
</svg>
