<svg width="67" height="67" viewBox="0 0 67 67" fill="none" xmlns="http://www.w3.org/2000/svg">
<g id="Done_ring_round">
<path id="Line 1" d="M25.125 27.9168L33.9115 34.5066C35.2541 35.5136 37.1458 35.3157 38.251 34.0527L55.8334 13.9585" stroke="#33363F" stroke-width="6.41667" stroke-linecap="round"/>
<path id="Ellipse 47" d="M58.625 33.5C58.625 38.7497 56.9806 43.8675 53.9228 48.1348C50.8649 52.402 46.5473 55.6042 41.5762 57.2916C36.6051 58.9791 31.2303 59.067 26.2066 57.5431C21.1829 56.0192 16.7628 52.96 13.567 48.7951C10.3712 44.6303 8.56022 39.569 8.38845 34.3221C8.21669 29.0752 9.69275 23.9063 12.6093 19.5413C15.5259 15.1763 19.7365 11.8346 24.6497 9.98536C29.5629 8.13616 34.932 7.87239 40.0028 9.23111" stroke="#33363F" stroke-width="6.41667" stroke-linecap="round"/>
</g>
</svg>
