<svg width="24" height="24" viewBox="0 0 24 24" fill="none" xmlns="http://www.w3.org/2000/svg">
<path d="M4 11C3.44772 11 3 11.4477 3 12C3 12.5523 3.44772 13 4 13V11ZM12 13C12.5523 13 13 12.5523 13 12C13 11.4477 12.5523 11 12 11V13ZM12 11C11.4477 11 11 11.4477 11 12C11 12.5523 11.4477 13 12 13V11ZM20 13C20.5523 13 21 12.5523 21 12C21 11.4477 20.5523 11 20 11V13ZM13 12C13 11.4477 12.5523 11 12 11C11.4477 11 11 11.4477 11 12H13ZM11 20C11 20.5523 11.4477 21 12 21C12.5523 21 13 20.5523 13 20H11ZM11 12C11 12.5523 11.4477 13 12 13C12.5523 13 13 12.5523 13 12H11ZM13 4C13 3.44772 12.5523 3 12 3C11.4477 3 11 3.44772 11 4H13ZM4 13H12V11H4V13ZM12 13H20V11H12V13ZM12 12C12 12 11 12 11 12C11 12 11 12 11 12C11 12 11 12 11 12C11 12 11 12 11 12C11 12 11 12 11 12C11 12 11 12 11 12C11 12 11 12 11 12C11 12 11 12 11 12C11 12 11 12 11 12C11 12 11 12.0001 11 12.0001C11 12.0001 11 12.0001 11 12.0001C11 12.0001 11 12.0001 11 12.0001C11 12.0001 11 12.0001 11 12.0001C11 12.0001 11 12.0002 11 12.0002C11 12.0002 11 12.0002 11 12.0002C11 12.0002 11 12.0002 11 12.0002C11 12.0003 11 12.0003 11 12.0003C11 12.0003 11 12.0003 11 12.0003C11 12.0004 11 12.0004 11 12.0004C11 12.0004 11 12.0005 11 12.0005C11 12.0005 11 12.0005 11 12.0006C11 12.0006 11 12.0006 11 12.0006C11 12.0007 11 12.0007 11 12.0007C11 12.0008 11 12.0008 11 12.0008C11 12.0009 11 12.0009 11 12.0009C11 12.001 11 12.001 11 12.001C11 12.0011 11 12.0011 11 12.0012C11 12.0012 11 12.0013 11 12.0013C11 12.0014 11 12.0014 11 12.0015C11 12.0015 11 12.0016 11 12.0016C11 12.0017 11 12.0017 11 12.0018C11 12.0018 11 12.0019 11 12.002C11 12.002 11 12.0021 11 12.0021C11 12.0022 11 12.0023 11 12.0023C11 12.0024 11 12.0025 11 12.0026C11 12.0026 11 12.0027 11 12.0028C11 12.0029 11 12.0029 11 12.003C11 12.0031 11 12.0032 11 12.0033C11 12.0034 11 12.0034 11 12.0035C11 12.0036 11 12.0037 11 12.0038C11 12.0039 11 12.004 11 12.0041C11 12.0042 11 12.0043 11 12.0044C11 12.0045 11 12.0046 11 12.0047C11 12.0048 11 12.005 11 12.0051C11 12.0052 11 12.0053 11 12.0054C11 12.0056 11 12.0057 11 12.0058C11 12.0059 11 12.0061 11 12.0062C11 12.0063 11 12.0065 11 12.0066C11 12.0067 11 12.0069 11 12.007C11 12.0072 11 12.0073 11 12.0075C11 12.0076 11 12.0078 11 12.0079C11 12.0081 11 12.0082 11 12.0084C11 12.0085 11 12.0087 11 12.0089C11 12.009 11 12.0092 11 12.0094C11 12.0096 11 12.0097 11 12.0099C11 12.0101 11 12.0103 11 12.0105C11 12.0107 11 12.0108 11 12.011C11 12.0112 11 12.0114 11 12.0116C11 12.0118 11 12.012 11 12.0122C11 12.0124 11 12.0127 11 12.0129C11 12.0131 11 12.0133 11 12.0135C11 12.0138 11 12.014 11 12.0142C11 12.0144 11 12.0147 11 12.0149C11 12.0151 11 12.0154 11 12.0156C11 12.0159 11 12.0161 11 12.0164C11 12.0166 11 12.0169 11 12.0171C11 12.0174 11 12.0177 11 12.0179C11 12.0182 11 12.0185 11 12.0187C11 12.019 11 12.0193 11 12.0196C11 12.0199 11 12.0202 11 12.0204C11 12.0207 11 12.021 11 12.0213C11 12.0216 11 12.0219 11 12.0222C11 12.0226 11 12.0229 11 12.0232C11 12.0235 11 12.0238 11 12.0242C11 12.0245 11 12.0248 11 12.0251C11 12.0255 11 12.0258 11 12.0262C11 12.0265 11 12.0269 11 12.0272C11 12.0276 11 12.0279 11 12.0283C11 12.0286 11 12.029 11 12.0294C11 12.0298 11 12.0301 11 12.0305C11 12.0309 11 12.0313 11 12.0317C11 12.0321 11 12.0325 11 12.0329C11 12.0333 11 12.0337 11 12.0341C11 12.0345 11 12.0349 11 12.0353C11 12.0357 11 12.0362 11 12.0366C11 12.037 11 12.0375 11 12.0379C11 12.0384 11 12.0388 11 12.0392C11 12.0397 11 12.0402 11 12.0406C11 12.0411 11 12.0415 11 12.042C11 12.0425 11 12.043 11 12.0435C11 12.0439 11 12.0444 11 12.0449C11 12.0454 11 12.0459 11 12.0464C11 12.0469 11 12.0474 11 12.0479C11 12.0485 11 12.049 11 12.0495C11 12.05 11 12.0506 11 12.0511C11 12.0516 11 12.0522 11 12.0527C11 12.0533 11 12.0538 11 12.0544C11 12.055 11 12.0555 11 12.0561C11 12.0567 11 12.0573 11 12.0578C11 12.0584 11 12.059 11 12.0596C11 12.0602 11 12.0608 11 12.0614C11 12.062 11 12.0626 11 12.0633C11 12.0639 11 12.0645 11 12.0651C11 12.0658 11 12.0664 11 12.067C11 12.0677 11 12.0683 11 12.069C11 12.0697 11 12.0703 11 12.071C11 12.0717 11 12.0723 11 12.073C11 12.0737 11 12.0744 11 12.0751C11 12.0758 11 12.0765 11 12.0772C11 12.0779 11 12.0786 11 12.0793C11 12.0801 11 12.0808 11 12.0815C11 12.0823 11 12.083 11 12.0837C11 12.0845 11 12.0852 11 12.086C11 12.0868 11 12.0875 11 12.0883C11 12.0891 11 12.0899 11 12.0907C11 12.0914 11 12.0922 11 12.093C11 12.0938 11 12.0946 11 12.0955C11 12.0963 11 12.0971 11 12.0979C11 12.0988 11 12.0996 11 12.1004C11 12.1013 11 12.1021 11 12.103C11 12.1039 11 12.1047 11 12.1056C11 12.1065 11 12.1073 11 12.1082C11 12.1091 11 12.11 11 12.1109C11 12.1118 11 12.1127 11 12.1136C11 12.1146 11 12.1155 11 12.1164C11 12.1173 11 12.1183 11 12.1192C11 12.1202 11 12.1211 11 12.1221C11 12.1231 11 12.124 11 12.125C11 12.126 11 12.127 11 12.128C11 12.1289 11 12.1299 11 12.131C11 12.132 11 12.133 11 12.134C11 12.135 11 12.1361 11 12.1371C11 12.1381 11 12.1392 11 12.1402C11 12.1413 11 12.1423 11 12.1434C11 12.1445 11 12.1456 11 12.1466C11 12.1477 11 12.1488 11 12.1499C11 12.151 11 12.1521 11 12.1533C11 12.1544 11 12.1555 11 12.1566C11 12.1578 11 12.1589 11 12.1601C11 12.1612 11 12.1624 11 12.1636C11 12.1647 11 12.1659 11 12.1671C11 12.1683 11 12.1695 11 12.1707C11 12.1719 11 12.1731 11 12.1743C11 12.1755 11 12.1767 11 12.178C11 12.1792 11 12.1805 11 12.1817C11 12.183 11 12.1842 11 12.1855C11 12.1868 11 12.188 11 12.1893C11 12.1906 11 12.1919 11 12.1932C11 12.1945 11 12.1958 11 12.1972C11 12.1985 11 12.1998 11 12.2012C11 12.2025 11 12.2039 11 12.2052C11 12.2066 11 12.2079 11 12.2093C11 12.2107 11 12.2121 11 12.2135C11 12.2149 11 12.2163 11 12.2177C11 12.2191 11 12.2205 11 12.222C11 12.2234 11 12.2248 11 12.2263C11 12.2277 11 12.2292 11 12.2307C11 12.2321 11 12.2336 11 12.2351C11 12.2366 11 12.2381 11 12.2396C11 12.2411 11 12.2426 11 12.2441C11 12.2457 11 12.2472 11 12.2487C11 12.2503 11 12.2518 11 12.2534C11 12.255 11 12.2565 11 12.2581C11 12.2597 11 12.2613 11 12.2629C11 12.2645 11 12.2661 11 12.2678C11 12.2694 11 12.271 11 12.2726C11 12.2743 11 12.2759 11 12.2776C11 12.2793 11 12.2809 11 12.2826C11 12.2843 11 12.286 11 12.2877C11 12.2894 11 12.2911 11 12.2928C11 12.2946 11 12.2963 11 12.298C11 12.2998 11 12.3015 11 12.3033C11 12.3051 11 12.3068 11 12.3086C11 12.3104 11 12.3122 11 12.314C11 12.3158 11 12.3176 11 12.3194C11 12.3213 11 12.3231 11 12.325C11 12.3268 11 12.3287 11 12.3305C11 12.3324 11 12.3343 11 12.3362C11 12.338 11 12.3399 11 12.3419C11 12.3438 11 12.3457 11 12.3476C11 12.3495 11 12.3515 11 12.3534C11 12.3554 11 12.3574 11 12.3593C11 12.3613 11 12.3633 11 12.3653C11 12.3673 11 12.3693 11 12.3713C11 12.3733 11 12.3754 11 12.3774C11 12.3794 11 12.3815 11 12.3835C11 12.3856 11 12.3877 11 12.3898C11 12.3919 11 12.3939 11 12.3961C11 12.3982 11 12.4003 11 12.4024C11 12.4045 11 12.4067 11 12.4088C11 12.411 11 12.4131 11 12.4153C11 12.4175 11 12.4197 11 12.4219C11 12.4241 11 12.4263 11 12.4285C11 12.4307 11 12.433 11 12.4352C11 12.4374 11 12.4397 11 12.442C11 12.4442 11 12.4465 11 12.4488C11 12.4511 11 12.4534 11 12.4557C11 12.458 11 12.4603 11 12.4627C11 12.465 11 12.4674 11 12.4697C11 12.4721 11 12.4745 11 12.4768C11 12.4792 11 12.4816 11 12.484C11 12.4864 11 12.4889 11 12.4913C11 12.4937 11 12.4962 11 12.4986C11 12.5011 11 12.5035 11 12.506C11 12.5085 11 12.511 11 12.5135C11 12.516 11 12.5185 11 12.5211C11 12.5236 11 12.5261 11 12.5287C11 12.5312 11 12.5338 11 12.5364C11 12.539 11 12.5415 11 12.5442C11 12.5468 11 12.5494 11 12.552C11 12.5546 11 12.5573 11 12.5599C11 12.5626 11 12.5652 11 12.5679C11 12.5706 11 12.5733 11 12.576C11 12.5787 11 12.5814 11 12.5841C11 12.5869 11 12.5896 11 12.5924C11 12.5951 11 12.5979 11 12.6007C11 12.6035 11 12.6063 11 12.6091C11 12.6119 11 12.6147 11 12.6175C11 12.6204 11 12.6232 11 12.6261C11 12.6289 11 12.6318 11 12.6347C11 12.6376 11 12.6405 11 12.6434C11 12.6463 11 12.6492 11 12.6521C11 12.6551 11 12.658 11 12.661C11 12.664 11 12.6669 11 12.6699C11 12.6729 11 12.6759 11 12.6789C11 12.682 11 12.685 11 12.688C11 12.6911 11 12.6941 11 12.6972C11 12.7003 11 12.7034 11 12.7065C11 12.7096 11 12.7127 11 12.7158C11 12.7189 11 12.7221 11 12.7252C11 12.7284 11 12.7315 11 12.7347C11 12.7379 11 12.7411 11 12.7443C11 12.7475 11 12.7507 11 12.754C11 12.7572 11 12.7604 11 12.7637C11 12.767 11 12.7702 11 12.7735C11 12.7768 11 12.7801 11 12.7835C11 12.7868 11 12.7901 11 12.7935C11 12.7968 11 12.8002 11 12.8035C11 12.8069 11 12.8103 11 12.8137C11 12.8171 11 12.8205 11 12.824C11 12.8274 11 12.8309 11 12.8343C11 12.8378 11 12.8413 11 12.8447C11 12.8482 11 12.8517 11 12.8553C11 12.8588 11 12.8623 11 12.8659C11 12.8694 11 12.873 11 12.8766C11 12.8801 11 12.8837 11 12.8873C11 12.8909 11 12.8946 11 12.8982C11 12.9018 11 12.9055 11 12.9091C11 12.9128 11 12.9165 11 12.9202C11 12.9239 11 12.9276 11 12.9313C11 12.935 11 12.9388 11 12.9425C11 12.9463 11 12.9501 11 12.9539C11 12.9576 11 12.9614 11 12.9653C11 12.9691 11 12.9729 11 12.9767C11 12.9806 11 12.9845 11 12.9883C11 12.9922 11 12.9961 11 13C11 13.0039 11 13.0078 11 13.0118C11 13.0157 11 13.0197 11 13.0236C11 13.0276 11 13.0316 11 13.0356C11 13.0396 11 13.0436 11 13.0476C11 13.0516 11 13.0557 11 13.0597C11 13.0638 11 13.0679 11 13.072C11 13.0761 11 13.0802 11 13.0843C11 13.0884 11 13.0926 11 13.0967C11 13.1009 11 13.105 11 13.1092C11 13.1134 11 13.1176 11 13.1218C11 13.126 11 13.1303 11 13.1345C11 13.1388 11 13.143 11 13.1473C11 13.1516 11 13.1559 11 13.1602C11 13.1645 11 13.1689 11 13.1732C11 13.1775 11 13.1819 11 13.1863C11 13.1907 11 13.1951 11 13.1995C11 13.2039 11 13.2083 11 13.2127C11 13.2172 11 13.2216 11 13.2261C11 13.2306 11 13.2351 11 13.2396C11 13.2441 11 13.2486 11 13.2532C11 13.2577 11 13.2623 11 13.2668C11 13.2714 11 13.276 11 13.2806C11 13.2852 11 13.2898 11 13.2945C11 13.2991 11 13.3038 11 13.3084C11 13.3131 11 13.3178 11 13.3225C11 13.3272 11 13.3319 11 13.3367C11 13.3414 11 13.3462 11 13.351C11 13.3557 11 13.3605 11 13.3653C11 13.3701 11 13.375 11 13.3798C11 13.3846 11 13.3895 11 13.3944C11 13.3992 11 13.4041 11 13.409C11 13.414 11 13.4189 11 13.4238C11 13.4288 11 13.4337 11 13.4387C11 13.4437 11 13.4487 11 13.4537C11 13.4587 11 13.4637 11 13.4688C11 13.4738 11 13.4789 11 13.484C11 13.4891 11 13.4942 11 13.4993C11 13.5044 11 13.5095 11 13.5147C11 13.5198 11 13.525 11 13.5302C11 13.5354 11 13.5406 11 13.5458C11 13.551 11 13.5563 11 13.5615C11 13.5668 11 13.5721 11 13.5774C11 13.5826 11 13.588 11 13.5933C11 13.5986 11 13.604 11 13.6093C11 13.6147 11 13.6201 11 13.6255C11 13.6309 11 13.6363 11 13.6417C11 13.6472 11 13.6526 11 13.6581C11 13.6636 11 13.6691 11 13.6746C11 13.6801 11 13.6856 11 13.6911C11 13.6967 11 13.7022 11 13.7078C11 13.7134 11 13.719 11 13.7246C11 13.7302 11 13.7359 11 13.7415C11 13.7472 11 13.7529 11 13.7586C11 13.7642 11 13.77 11 13.7757C11 13.7814 11 13.7872 11 13.7929C11 13.7987 11 13.8045 11 13.8103C11 13.8161 11 13.8219 11 13.8277C11 13.8336 11 13.8394 11 13.8453C11 13.8512 11 13.8571 11 13.863C11 13.8689 11 13.8748 11 13.8808C11 13.8867 11 13.8927 11 13.8987C11 13.9047 11 13.9107 11 13.9167C11 13.9228 11 13.9288 11 13.9349C11 13.9409 11 13.947 11 13.9531C11 13.9592 11 13.9654 11 13.9715C11 13.9776 11 13.9838 11 13.99C11 13.9962 11 14.0024 11 14.0086C11 14.0148 11 14.021 11 14.0273C11 14.0335 11 14.0398 11 14.0461C11 14.0524 11 14.0587 11 14.0651C11 14.0714 11 14.0777 11 14.0841C11 14.0905 11 14.0969 11 14.1033C11 14.1097 11 14.1161 11 14.1226C11 14.129 11 14.1355 11 14.142C11 14.1485 11 14.155 11 14.1615C11 14.1681 11 14.1746 11 14.1812C11 14.1878 11 14.1944 11 14.201C11 14.2076 11 14.2142 11 14.2209C11 14.2275 11 14.2342 11 14.2409C11 14.2475 11 14.2543 11 14.261C11 14.2677 11 14.2745 11 14.2812C11 14.288 11 14.2948 11 14.3016C11 14.3084 11 14.3152 11 14.3221C11 14.3289 11 14.3358 11 14.3427C11 14.3496 11 14.3565 11 14.3634C11 14.3704 11 14.3773 11 14.3843C11 14.3913 11 14.3983 11 14.4053C11 14.4123 11 14.4193 11 14.4264C11 14.4334 11 14.4405 11 14.4476C11 14.4547 11 14.4618 11 14.4689C11 14.4761 11 14.4832 11 14.4904C11 14.4976 11 14.5048 11 14.512C11 14.5192 11 14.5264 11 14.5337C11 14.541 11 14.5482 11 14.5555C11 14.5629 11 14.5702 11 14.5775C11 14.5849 11 14.5922 11 14.5996C11 14.607 11 14.6144 11 14.6218C11 14.6293 11 14.6367 11 14.6442C11 14.6516 11 14.6591 11 14.6666C11 14.6742 11 14.6817 11 14.6892C11 14.6968 11 14.7044 11 14.712C11 14.7196 11 14.7272 11 14.7348C11 14.7425 11 14.7501 11 14.7578C11 14.7655 11 14.7732 11 14.7809C11 14.7886 11 14.7964 11 14.8042C11 14.8119 11 14.8197 11 14.8275C11 14.8353 11 14.8432 11 14.851C11 14.8589 11 14.8667 11 14.8746C11 14.8825 11 14.8905 11 14.8984C11 14.9063 11 14.9143 11 14.9223C11 14.9303 11 14.9383 11 14.9463C11 14.9543 11 14.9624 11 14.9705C11 14.9785 11 14.9866 11 14.9947C11 15.0029 11 15.011 11 15.0192C11 15.0273 11 15.0355 11 15.0437C11 15.0519 11 15.0601 11 15.0684C11 15.0766 11 15.0849 11 15.0932C11 15.1015 11 15.1098 11 15.1181C11 15.1265 11 15.1348 11 15.1432C11 15.1516 11 15.16 11 15.1684C11 15.1769 11 15.1853 11 15.1938C11 15.2022 11 15.2107 11 15.2193C11 15.2278 11 15.2363 11 15.2449C11 15.2534 11 15.262 11 15.2706C11 15.2792 11 15.2879 11 15.2965C11 15.3052 11 15.3138 11 15.3225C11 15.3312 11 15.34 11 15.3487C11 15.3574 11 15.3662 11 15.375C11 15.3838 11 15.3926 11 15.4014C11 15.4103 11 15.4191 11 15.428C11 15.4369 11 15.4458 11 15.4547C11 15.4636 11 15.4726 11 15.4816C11 15.4905 11 15.4995 11 15.5086C11 15.5176 11 15.5266 11 15.5357C11 15.5448 11 15.5538 11 15.563C11 15.5721 11 15.5812 11 15.5904C11 15.5995 11 15.6087 11 15.6179C11 15.6271 11 15.6363 11 15.6456C11 15.6549 11 15.6641 11 15.6734C11 15.6827 11 15.6921 11 15.7014C11 15.7107 11 15.7201 11 15.7295C11 15.7389 11 15.7483 11 15.7578C11 15.7672 11 15.7767 11 15.7862C11 15.7956 11 15.8052 11 15.8147C11 15.8242 11 15.8338 11 15.8434C11 15.853 11 15.8626 11 15.8722C11 15.8818 11 15.8915 11 15.9012C11 15.9109 11 15.9206 11 15.9303C11 15.94 11 15.9498 11 15.9595C11 15.9693 11 15.9791 11 15.9889C11 15.9988 11 16.0086 11 16.0185C11 16.0284 11 16.0383 11 16.0482C11 16.0581 11 16.0681 11 16.078C11 16.088 11 16.098 11 16.108C11 16.118 11 16.1281 11 16.1381C11 16.1482 11 16.1583 11 16.1684C11 16.1785 11 16.1887 11 16.1988C11 16.209 11 16.2192 11 16.2294C11 16.2396 11 16.2499 11 16.2601C11 16.2704 11 16.2807 11 16.291C11 16.3013 11 16.3117 11 16.322C11 16.3324 11 16.3428 11 16.3532C11 16.3636 11 16.3741 11 16.3845C11 16.395 11 16.4055 11 16.416C11 16.4265 11 16.437 11 16.4476C11 16.4582 11 16.4688 11 16.4794C11 16.49 11 16.5006 11 16.5113C11 16.522 11 16.5327 11 16.5434C11 16.5541 11 16.5648 11 16.5756C11 16.5864 11 16.5971 11 16.608C11 16.6188 11 16.6296 11 16.6405C11 16.6514 11 16.6622 11 16.6732C11 16.6841 11 16.695 11 16.706C11 16.717 11 16.728 11 16.739C11 16.75 11 16.7611 11 16.7721C11 16.7832 11 16.7943 11 16.8054C11 16.8165 11 16.8277 11 16.8389C11 16.85 11 16.8612 11 16.8725C11 16.8837 11 16.895 11 16.9062C11 16.9175 11 16.9288 11 16.9401C11 16.9515 11 16.9628 11 16.9742C11 16.9856 11 16.997 11 17.0084C11 17.0199 11 17.0313 11 17.0428C11 17.0543 11 17.0658 11 17.0774C11 17.0889 11 17.1005 11 17.1121C11 17.1237 11 17.1353 11 17.1469C11 17.1586 11 17.1702 11 17.1819C11 17.1936 11 17.2053 11 17.2171C11 17.2288 11 17.2406 11 17.2524C11 17.2642 11 17.2761 11 17.2879C11 17.2998 11 17.3117 11 17.3236C11 17.3355 11 17.3474 11 17.3594C11 17.3713 11 17.3833 11 17.3953C11 17.4074 11 17.4194 11 17.4315C11 17.4435 11 17.4556 11 17.4678C11 17.4799 11 17.492 11 17.5042C11 17.5164 11 17.5286 11 17.5408C11 17.5531 11 17.5653 11 17.5776C11 17.5899 11 17.6022 11 17.6145C11 17.6269 11 17.6392 11 17.6516C11 17.664 11 17.6765 11 17.6889C11 17.7014 11 17.7138 11 17.7263C11 17.7388 11 17.7514 11 17.7639C11 17.7765 11 17.7891 11 17.8017C11 17.8143 11 17.8269 11 17.8396C11 17.8523 11 17.865 11 17.8777C11 17.8904 11 17.9032 11 17.9159C11 17.9287 11 17.9415 11 17.9543C11 17.9672 11 17.98 11 17.9929C11 18.0058 11 18.0187 11 18.0317C11 18.0446 11 18.0576 11 18.0706C11 18.0836 11 18.0966 11 18.1097C11 18.1227 11 18.1358 11 18.1489C11 18.162 11 18.1752 11 18.1883C11 18.2015 11 18.2147 11 18.2279C11 18.2411 11 18.2544 11 18.2677C11 18.2809 11 18.2943 11 18.3076C11 18.3209 11 18.3343 11 18.3477C11 18.3611 11 18.3745 11 18.3879C11 18.4014 11 18.4149 11 18.4284C11 18.4419 11 18.4554 11 18.469C11 18.4825 11 18.4961 11 18.5097C11 18.5234 11 18.537 11 18.5507C11 18.5644 11 18.5781 11 18.5918C11 18.6055 11 18.6193 11 18.6331C11 18.6469 11 18.6607 11 18.6745C11 18.6884 11 18.7023 11 18.7162C11 18.7301 11 18.744 11 18.758C11 18.7719 11 18.7859 11 18.7999C11 18.814 11 18.828 11 18.8421C11 18.8562 11 18.8703 11 18.8844C11 18.8986 11 18.9127 11 18.9269C11 18.9411 11 18.9553 11 18.9696C11 18.9838 11 18.9981 11 19.0124C11 19.0267 11 19.0411 11 19.0554C11 19.0698 11 19.0842 11 19.0986C11 19.1131 11 19.1275 11 19.142C11 19.1565 11 19.171 11 19.1856C11 19.2001 11 19.2147 11 19.2293C11 19.2439 11 19.2585 11 19.2732C11 19.2879 11 19.3026 11 19.3173C11 19.332 11 19.3467 11 19.3615C11 19.3763 11 19.3911 11 19.406C11 19.4208 11 19.4357 11 19.4506C11 19.4655 11 19.4804 11 19.4954C11 19.5103 11 19.5253 11 19.5403C11 19.5554 11 19.5704 11 19.5855C11 19.6006 11 19.6157 11 19.6308C11 19.646 11 19.6611 11 19.6763C11 19.6915 11 19.7068 11 19.722C11 19.7373 11 19.7526 11 19.7679C11 19.7832 11 19.7986 11 19.814C11 19.8293 11 19.8448 11 19.8602C11 19.8756 11 19.8911 11 19.9066C11 19.9221 11 19.9377 11 19.9532C11 19.9688 11 19.9844 11 20H13C13 19.9844 13 19.9688 13 19.9532C13 19.9377 13 19.9221 13 19.9066C13 19.8911 13 19.8756 13 19.8602C13 19.8448 13 19.8293 13 19.814C13 19.7986 13 19.7832 13 19.7679C13 19.7526 13 19.7373 13 19.722C13 19.7068 13 19.6915 13 19.6763C13 19.6611 13 19.646 13 19.6308C13 19.6157 13 19.6006 13 19.5855C13 19.5704 13 19.5554 13 19.5403C13 19.5253 13 19.5103 13 19.4954C13 19.4804 13 19.4655 13 19.4506C13 19.4357 13 19.4208 13 19.406C13 19.3911 13 19.3763 13 19.3615C13 19.3467 13 19.332 13 19.3173C13 19.3026 13 19.2879 13 19.2732C13 19.2585 13 19.2439 13 19.2293C13 19.2147 13 19.2001 13 19.1856C13 19.171 13 19.1565 13 19.142C13 19.1275 13 19.1131 13 19.0986C13 19.0842 13 19.0698 13 19.0554C13 19.0411 13 19.0267 13 19.0124C13 18.9981 13 18.9838 13 18.9696C13 18.9553 13 18.9411 13 18.9269C13 18.9127 13 18.8986 13 18.8844C13 18.8703 13 18.8562 13 18.8421C13 18.828 13 18.814 13 18.7999C13 18.7859 13 18.7719 13 18.758C13 18.744 13 18.7301 13 18.7162C13 18.7023 13 18.6884 13 18.6745C13 18.6607 13 18.6469 13 18.6331C13 18.6193 13 18.6055 13 18.5918C13 18.5781 13 18.5644 13 18.5507C13 18.537 13 18.5234 13 18.5097C13 18.4961 13 18.4825 13 18.469C13 18.4554 13 18.4419 13 18.4284C13 18.4149 13 18.4014 13 18.3879C13 18.3745 13 18.3611 13 18.3477C13 18.3343 13 18.3209 13 18.3076C13 18.2943 13 18.2809 13 18.2677C13 18.2544 13 18.2411 13 18.2279C13 18.2147 13 18.2015 13 18.1883C13 18.1752 13 18.162 13 18.1489C13 18.1358 13 18.1227 13 18.1097C13 18.0966 13 18.0836 13 18.0706C13 18.0576 13 18.0446 13 18.0317C13 18.0187 13 18.0058 13 17.9929C13 17.98 13 17.9672 13 17.9543C13 17.9415 13 17.9287 13 17.9159C13 17.9032 13 17.8904 13 17.8777C13 17.865 13 17.8523 13 17.8396C13 17.8269 13 17.8143 13 17.8017C13 17.7891 13 17.7765 13 17.7639C13 17.7514 13 17.7388 13 17.7263C13 17.7138 13 17.7014 13 17.6889C13 17.6765 13 17.664 13 17.6516C13 17.6392 13 17.6269 13 17.6145C13 17.6022 13 17.5899 13 17.5776C13 17.5653 13 17.5531 13 17.5408C13 17.5286 13 17.5164 13 17.5042C13 17.492 13 17.4799 13 17.4678C13 17.4556 13 17.4435 13 17.4315C13 17.4194 13 17.4074 13 17.3953C13 17.3833 13 17.3713 13 17.3594C13 17.3474 13 17.3355 13 17.3236C13 17.3117 13 17.2998 13 17.2879C13 17.2761 13 17.2642 13 17.2524C13 17.2406 13 17.2288 13 17.2171C13 17.2053 13 17.1936 13 17.1819C13 17.1702 13 17.1586 13 17.1469C13 17.1353 13 17.1237 13 17.1121C13 17.1005 13 17.0889 13 17.0774C13 17.0658 13 17.0543 13 17.0428C13 17.0313 13 17.0199 13 17.0084C13 16.997 13 16.9856 13 16.9742C13 16.9628 13 16.9515 13 16.9401C13 16.9288 13 16.9175 13 16.9062C13 16.895 13 16.8837 13 16.8725C13 16.8612 13 16.85 13 16.8389C13 16.8277 13 16.8165 13 16.8054C13 16.7943 13 16.7832 13 16.7721C13 16.7611 13 16.75 13 16.739C13 16.728 13 16.717 13 16.706C13 16.695 13 16.6841 13 16.6732C13 16.6622 13 16.6514 13 16.6405C13 16.6296 13 16.6188 13 16.608C13 16.5971 13 16.5864 13 16.5756C13 16.5648 13 16.5541 13 16.5434C13 16.5327 13 16.522 13 16.5113C13 16.5006 13 16.49 13 16.4794C13 16.4688 13 16.4582 13 16.4476C13 16.437 13 16.4265 13 16.416C13 16.4055 13 16.395 13 16.3845C13 16.3741 13 16.3636 13 16.3532C13 16.3428 13 16.3324 13 16.322C13 16.3117 13 16.3013 13 16.291C13 16.2807 13 16.2704 13 16.2601C13 16.2499 13 16.2396 13 16.2294C13 16.2192 13 16.209 13 16.1988C13 16.1887 13 16.1785 13 16.1684C13 16.1583 13 16.1482 13 16.1381C13 16.1281 13 16.118 13 16.108C13 16.098 13 16.088 13 16.078C13 16.0681 13 16.0581 13 16.0482C13 16.0383 13 16.0284 13 16.0185C13 16.0086 13 15.9988 13 15.9889C13 15.9791 13 15.9693 13 15.9595C13 15.9498 13 15.94 13 15.9303C13 15.9206 13 15.9109 13 15.9012C13 15.8915 13 15.8818 13 15.8722C13 15.8626 13 15.853 13 15.8434C13 15.8338 13 15.8242 13 15.8147C13 15.8052 13 15.7956 13 15.7862C13 15.7767 13 15.7672 13 15.7578C13 15.7483 13 15.7389 13 15.7295C13 15.7201 13 15.7107 13 15.7014C13 15.6921 13 15.6827 13 15.6734C13 15.6641 13 15.6549 13 15.6456C13 15.6363 13 15.6271 13 15.6179C13 15.6087 13 15.5995 13 15.5904C13 15.5812 13 15.5721 13 15.563C13 15.5538 13 15.5448 13 15.5357C13 15.5266 13 15.5176 13 15.5086C13 15.4995 13 15.4905 13 15.4816C13 15.4726 13 15.4636 13 15.4547C13 15.4458 13 15.4369 13 15.428C13 15.4191 13 15.4103 13 15.4014C13 15.3926 13 15.3838 13 15.375C13 15.3662 13 15.3574 13 15.3487C13 15.34 13 15.3312 13 15.3225C13 15.3138 13 15.3052 13 15.2965C13 15.2879 13 15.2792 13 15.2706C13 15.262 13 15.2534 13 15.2449C13 15.2363 13 15.2278 13 15.2193C13 15.2107 13 15.2022 13 15.1938C13 15.1853 13 15.1769 13 15.1684C13 15.16 13 15.1516 13 15.1432C13 15.1348 13 15.1265 13 15.1181C13 15.1098 13 15.1015 13 15.0932C13 15.0849 13 15.0766 13 15.0684C13 15.0601 13 15.0519 13 15.0437C13 15.0355 13 15.0273 13 15.0192C13 15.011 13 15.0029 13 14.9947C13 14.9866 13 14.9785 13 14.9705C13 14.9624 13 14.9543 13 14.9463C13 14.9383 13 14.9303 13 14.9223C13 14.9143 13 14.9063 13 14.8984C13 14.8905 13 14.8825 13 14.8746C13 14.8667 13 14.8589 13 14.851C13 14.8432 13 14.8353 13 14.8275C13 14.8197 13 14.8119 13 14.8042C13 14.7964 13 14.7886 13 14.7809C13 14.7732 13 14.7655 13 14.7578C13 14.7501 13 14.7425 13 14.7348C13 14.7272 13 14.7196 13 14.712C13 14.7044 13 14.6968 13 14.6892C13 14.6817 13 14.6742 13 14.6666C13 14.6591 13 14.6516 13 14.6442C13 14.6367 13 14.6293 13 14.6218C13 14.6144 13 14.607 13 14.5996C13 14.5922 13 14.5849 13 14.5775C13 14.5702 13 14.5629 13 14.5555C13 14.5482 13 14.541 13 14.5337C13 14.5264 13 14.5192 13 14.512C13 14.5048 13 14.4976 13 14.4904C13 14.4832 13 14.4761 13 14.4689C13 14.4618 13 14.4547 13 14.4476C13 14.4405 13 14.4334 13 14.4264C13 14.4193 13 14.4123 13 14.4053C13 14.3983 13 14.3913 13 14.3843C13 14.3773 13 14.3704 13 14.3634C13 14.3565 13 14.3496 13 14.3427C13 14.3358 13 14.3289 13 14.3221C13 14.3152 13 14.3084 13 14.3016C13 14.2948 13 14.288 13 14.2812C13 14.2745 13 14.2677 13 14.261C13 14.2543 13 14.2475 13 14.2409C13 14.2342 13 14.2275 13 14.2209C13 14.2142 13 14.2076 13 14.201C13 14.1944 13 14.1878 13 14.1812C13 14.1746 13 14.1681 13 14.1615C13 14.155 13 14.1485 13 14.142C13 14.1355 13 14.129 13 14.1226C13 14.1161 13 14.1097 13 14.1033C13 14.0969 13 14.0905 13 14.0841C13 14.0777 13 14.0714 13 14.0651C13 14.0587 13 14.0524 13 14.0461C13 14.0398 13 14.0335 13 14.0273C13 14.021 13 14.0148 13 14.0086C13 14.0024 13 13.9962 13 13.99C13 13.9838 13 13.9776 13 13.9715C13 13.9654 13 13.9592 13 13.9531C13 13.947 13 13.9409 13 13.9349C13 13.9288 13 13.9228 13 13.9167C13 13.9107 13 13.9047 13 13.8987C13 13.8927 13 13.8867 13 13.8808C13 13.8748 13 13.8689 13 13.863C13 13.8571 13 13.8512 13 13.8453C13 13.8394 13 13.8336 13 13.8277C13 13.8219 13 13.8161 13 13.8103C13 13.8045 13 13.7987 13 13.7929C13 13.7872 13 13.7814 13 13.7757C13 13.77 13 13.7642 13 13.7586C13 13.7529 13 13.7472 13 13.7415C13 13.7359 13 13.7302 13 13.7246C13 13.719 13 13.7134 13 13.7078C13 13.7022 13 13.6967 13 13.6911C13 13.6856 13 13.6801 13 13.6746C13 13.6691 13 13.6636 13 13.6581C13 13.6526 13 13.6472 13 13.6417C13 13.6363 13 13.6309 13 13.6255C13 13.6201 13 13.6147 13 13.6093C13 13.604 13 13.5986 13 13.5933C13 13.588 13 13.5826 13 13.5774C13 13.5721 13 13.5668 13 13.5615C13 13.5563 13 13.551 13 13.5458C13 13.5406 13 13.5354 13 13.5302C13 13.525 13 13.5198 13 13.5147C13 13.5095 13 13.5044 13 13.4993C13 13.4942 13 13.4891 13 13.484C13 13.4789 13 13.4738 13 13.4688C13 13.4637 13 13.4587 13 13.4537C13 13.4487 13 13.4437 13 13.4387C13 13.4337 13 13.4288 13 13.4238C13 13.4189 13 13.414 13 13.409C13 13.4041 13 13.3992 13 13.3944C13 13.3895 13 13.3846 13 13.3798C13 13.375 13 13.3701 13 13.3653C13 13.3605 13 13.3557 13 13.351C13 13.3462 13 13.3414 13 13.3367C13 13.3319 13 13.3272 13 13.3225C13 13.3178 13 13.3131 13 13.3084C13 13.3038 13 13.2991 13 13.2945C13 13.2898 13 13.2852 13 13.2806C13 13.276 13 13.2714 13 13.2668C13 13.2623 13 13.2577 13 13.2532C13 13.2486 13 13.2441 13 13.2396C13 13.2351 13 13.2306 13 13.2261C13 13.2216 13 13.2172 13 13.2127C13 13.2083 13 13.2039 13 13.1995C13 13.1951 13 13.1907 13 13.1863C13 13.1819 13 13.1775 13 13.1732C13 13.1689 13 13.1645 13 13.1602C13 13.1559 13 13.1516 13 13.1473C13 13.143 13 13.1388 13 13.1345C13 13.1303 13 13.126 13 13.1218C13 13.1176 13 13.1134 13 13.1092C13 13.105 13 13.1009 13 13.0967C13 13.0926 13 13.0884 13 13.0843C13 13.0802 13 13.0761 13 13.072C13 13.0679 13 13.0638 13 13.0597C13 13.0557 13 13.0516 13 13.0476C13 13.0436 13 13.0396 13 13.0356C13 13.0316 13 13.0276 13 13.0236C13 13.0197 13 13.0157 13 13.0118C13 13.0078 13 13.0039 13 13C13 12.9961 13 12.9922 13 12.9883C13 12.9845 13 12.9806 13 12.9767C13 12.9729 13 12.9691 13 12.9653C13 12.9614 13 12.9576 13 12.9539C13 12.9501 13 12.9463 13 12.9425C13 12.9388 13 12.935 13 12.9313C13 12.9276 13 12.9239 13 12.9202C13 12.9165 13 12.9128 13 12.9091C13 12.9055 13 12.9018 13 12.8982C13 12.8946 13 12.8909 13 12.8873C13 12.8837 13 12.8801 13 12.8766C13 12.873 13 12.8694 13 12.8659C13 12.8623 13 12.8588 13 12.8553C13 12.8517 13 12.8482 13 12.8447C13 12.8413 13 12.8378 13 12.8343C13 12.8309 13 12.8274 13 12.824C13 12.8205 13 12.8171 13 12.8137C13 12.8103 13 12.8069 13 12.8035C13 12.8002 13 12.7968 13 12.7935C13 12.7901 13 12.7868 13 12.7835C13 12.7801 13 12.7768 13 12.7735C13 12.7702 13 12.767 13 12.7637C13 12.7604 13 12.7572 13 12.754C13 12.7507 13 12.7475 13 12.7443C13 12.7411 13 12.7379 13 12.7347C13 12.7315 13 12.7284 13 12.7252C13 12.7221 13 12.7189 13 12.7158C13 12.7127 13 12.7096 13 12.7065C13 12.7034 13 12.7003 13 12.6972C13 12.6941 13 12.6911 13 12.688C13 12.685 13 12.682 13 12.6789C13 12.6759 13 12.6729 13 12.6699C13 12.6669 13 12.664 13 12.661C13 12.658 13 12.6551 13 12.6521C13 12.6492 13 12.6463 13 12.6434C13 12.6405 13 12.6376 13 12.6347C13 12.6318 13 12.6289 13 12.6261C13 12.6232 13 12.6204 13 12.6175C13 12.6147 13 12.6119 13 12.6091C13 12.6063 13 12.6035 13 12.6007C13 12.5979 13 12.5951 13 12.5924C13 12.5896 13 12.5869 13 12.5841C13 12.5814 13 12.5787 13 12.576C13 12.5733 13 12.5706 13 12.5679C13 12.5652 13 12.5626 13 12.5599C13 12.5573 13 12.5546 13 12.552C13 12.5494 13 12.5468 13 12.5442C13 12.5415 13 12.539 13 12.5364C13 12.5338 13 12.5312 13 12.5287C13 12.5261 13 12.5236 13 12.5211C13 12.5185 13 12.516 13 12.5135C13 12.511 13 12.5085 13 12.506C13 12.5035 13 12.5011 13 12.4986C13 12.4962 13 12.4937 13 12.4913C13 12.4889 13 12.4864 13 12.484C13 12.4816 13 12.4792 13 12.4768C13 12.4745 13 12.4721 13 12.4697C13 12.4674 13 12.465 13 12.4627C13 12.4603 13 12.458 13 12.4557C13 12.4534 13 12.4511 13 12.4488C13 12.4465 13 12.4442 13 12.442C13 12.4397 13 12.4374 13 12.4352C13 12.433 13 12.4307 13 12.4285C13 12.4263 13 12.4241 13 12.4219C13 12.4197 13 12.4175 13 12.4153C13 12.4131 13 12.411 13 12.4088C13 12.4067 13 12.4045 13 12.4024C13 12.4003 13 12.3982 13 12.3961C13 12.3939 13 12.3919 13 12.3898C13 12.3877 13 12.3856 13 12.3835C13 12.3815 13 12.3794 13 12.3774C13 12.3754 13 12.3733 13 12.3713C13 12.3693 13 12.3673 13 12.3653C13 12.3633 13 12.3613 13 12.3593C13 12.3574 13 12.3554 13 12.3534C13 12.3515 13 12.3495 13 12.3476C13 12.3457 13 12.3438 13 12.3419C13 12.3399 13 12.338 13 12.3362C13 12.3343 13 12.3324 13 12.3305C13 12.3287 13 12.3268 13 12.325C13 12.3231 13 12.3213 13 12.3194C13 12.3176 13 12.3158 13 12.314C13 12.3122 13 12.3104 13 12.3086C13 12.3068 13 12.3051 13 12.3033C13 12.3015 13 12.2998 13 12.298C13 12.2963 13 12.2946 13 12.2928C13 12.2911 13 12.2894 13 12.2877C13 12.286 13 12.2843 13 12.2826C13 12.2809 13 12.2793 13 12.2776C13 12.2759 13 12.2743 13 12.2726C13 12.271 13 12.2694 13 12.2678C13 12.2661 13 12.2645 13 12.2629C13 12.2613 13 12.2597 13 12.2581C13 12.2565 13 12.255 13 12.2534C13 12.2518 13 12.2503 13 12.2487C13 12.2472 13 12.2457 13 12.2441C13 12.2426 13 12.2411 13 12.2396C13 12.2381 13 12.2366 13 12.2351C13 12.2336 13 12.2321 13 12.2307C13 12.2292 13 12.2277 13 12.2263C13 12.2248 13 12.2234 13 12.222C13 12.2205 13 12.2191 13 12.2177C13 12.2163 13 12.2149 13 12.2135C13 12.2121 13 12.2107 13 12.2093C13 12.2079 13 12.2066 13 12.2052C13 12.2039 13 12.2025 13 12.2012C13 12.1998 13 12.1985 13 12.1972C13 12.1958 13 12.1945 13 12.1932C13 12.1919 13 12.1906 13 12.1893C13 12.188 13 12.1868 13 12.1855C13 12.1842 13 12.183 13 12.1817C13 12.1805 13 12.1792 13 12.178C13 12.1767 13 12.1755 13 12.1743C13 12.1731 13 12.1719 13 12.1707C13 12.1695 13 12.1683 13 12.1671C13 12.1659 13 12.1647 13 12.1636C13 12.1624 13 12.1612 13 12.1601C13 12.1589 13 12.1578 13 12.1566C13 12.1555 13 12.1544 13 12.1533C13 12.1521 13 12.151 13 12.1499C13 12.1488 13 12.1477 13 12.1466C13 12.1456 13 12.1445 13 12.1434C13 12.1423 13 12.1413 13 12.1402C13 12.1392 13 12.1381 13 12.1371C13 12.1361 13 12.135 13 12.134C13 12.133 13 12.132 13 12.131C13 12.1299 13 12.1289 13 12.128C13 12.127 13 12.126 13 12.125C13 12.124 13 12.1231 13 12.1221C13 12.1211 13 12.1202 13 12.1192C13 12.1183 13 12.1173 13 12.1164C13 12.1155 13 12.1146 13 12.1136C13 12.1127 13 12.1118 13 12.1109C13 12.11 13 12.1091 13 12.1082C13 12.1073 13 12.1065 13 12.1056C13 12.1047 13 12.1039 13 12.103C13 12.1021 13 12.1013 13 12.1004C13 12.0996 13 12.0988 13 12.0979C13 12.0971 13 12.0963 13 12.0955C13 12.0946 13 12.0938 13 12.093C13 12.0922 13 12.0914 13 12.0907C13 12.0899 13 12.0891 13 12.0883C13 12.0875 13 12.0868 13 12.086C13 12.0852 13 12.0845 13 12.0837C13 12.083 13 12.0823 13 12.0815C13 12.0808 13 12.0801 13 12.0793C13 12.0786 13 12.0779 13 12.0772C13 12.0765 13 12.0758 13 12.0751C13 12.0744 13 12.0737 13 12.073C13 12.0723 13 12.0717 13 12.071C13 12.0703 13 12.0697 13 12.069C13 12.0683 13 12.0677 13 12.067C13 12.0664 13 12.0658 13 12.0651C13 12.0645 13 12.0639 13 12.0633C13 12.0626 13 12.062 13 12.0614C13 12.0608 13 12.0602 13 12.0596C13 12.059 13 12.0584 13 12.0578C13 12.0573 13 12.0567 13 12.0561C13 12.0555 13 12.055 13 12.0544C13 12.0538 13 12.0533 13 12.0527C13 12.0522 13 12.0516 13 12.0511C13 12.0506 13 12.05 13 12.0495C13 12.049 13 12.0485 13 12.0479C13 12.0474 13 12.0469 13 12.0464C13 12.0459 13 12.0454 13 12.0449C13 12.0444 13 12.0439 13 12.0435C13 12.043 13 12.0425 13 12.042C13 12.0415 13 12.0411 13 12.0406C13 12.0402 13 12.0397 13 12.0392C13 12.0388 13 12.0384 13 12.0379C13 12.0375 13 12.037 13 12.0366C13 12.0362 13 12.0357 13 12.0353C13 12.0349 13 12.0345 13 12.0341C13 12.0337 13 12.0333 13 12.0329C13 12.0325 13 12.0321 13 12.0317C13 12.0313 13 12.0309 13 12.0305C13 12.0301 13 12.0298 13 12.0294C13 12.029 13 12.0286 13 12.0283C13 12.0279 13 12.0276 13 12.0272C13 12.0269 13 12.0265 13 12.0262C13 12.0258 13 12.0255 13 12.0251C13 12.0248 13 12.0245 13 12.0242C13 12.0238 13 12.0235 13 12.0232C13 12.0229 13 12.0226 13 12.0222C13 12.0219 13 12.0216 13 12.0213C13 12.021 13 12.0207 13 12.0204C13 12.0202 13 12.0199 13 12.0196C13 12.0193 13 12.019 13 12.0187C13 12.0185 13 12.0182 13 12.0179C13 12.0177 13 12.0174 13 12.0171C13 12.0169 13 12.0166 13 12.0164C13 12.0161 13 12.0159 13 12.0156C13 12.0154 13 12.0151 13 12.0149C13 12.0147 13 12.0144 13 12.0142C13 12.014 13 12.0138 13 12.0135C13 12.0133 13 12.0131 13 12.0129C13 12.0127 13 12.0124 13 12.0122C13 12.012 13 12.0118 13 12.0116C13 12.0114 13 12.0112 13 12.011C13 12.0108 13 12.0107 13 12.0105C13 12.0103 13 12.0101 13 12.0099C13 12.0097 13 12.0096 13 12.0094C13 12.0092 13 12.009 13 12.0089C13 12.0087 13 12.0085 13 12.0084C13 12.0082 13 12.0081 13 12.0079C13 12.0078 13 12.0076 13 12.0075C13 12.0073 13 12.0072 13 12.007C13 12.0069 13 12.0067 13 12.0066C13 12.0065 13 12.0063 13 12.0062C13 12.0061 13 12.0059 13 12.0058C13 12.0057 13 12.0056 13 12.0054C13 12.0053 13 12.0052 13 12.0051C13 12.005 13 12.0048 13 12.0047C13 12.0046 13 12.0045 13 12.0044C13 12.0043 13 12.0042 13 12.0041C13 12.004 13 12.0039 13 12.0038C13 12.0037 13 12.0036 13 12.0035C13 12.0034 13 12.0034 13 12.0033C13 12.0032 13 12.0031 13 12.003C13 12.0029 13 12.0029 13 12.0028C13 12.0027 13 12.0026 13 12.0026C13 12.0025 13 12.0024 13 12.0023C13 12.0023 13 12.0022 13 12.0021C13 12.0021 13 12.002 13 12.002C13 12.0019 13 12.0018 13 12.0018C13 12.0017 13 12.0017 13 12.0016C13 12.0016 13 12.0015 13 12.0015C13 12.0014 13 12.0014 13 12.0013C13 12.0013 13 12.0012 13 12.0012C13 12.0011 13 12.0011 13 12.001C13 12.001 13 12.001 13 12.0009C13 12.0009 13 12.0009 13 12.0008C13 12.0008 13 12.0008 13 12.0007C13 12.0007 13 12.0007 13 12.0006C13 12.0006 13 12.0006 13 12.0006C13 12.0005 13 12.0005 13 12.0005C13 12.0005 13 12.0004 13 12.0004C13 12.0004 13 12.0004 13 12.0003C13 12.0003 13 12.0003 13 12.0003C13 12.0003 13 12.0003 13 12.0002C13 12.0002 13 12.0002 13 12.0002C13 12.0002 13 12.0002 13 12.0002C13 12.0002 13 12.0001 13 12.0001C13 12.0001 13 12.0001 13 12.0001C13 12.0001 13 12.0001 13 12.0001C13 12.0001 13 12.0001 13 12.0001C13 12.0001 13 12 13 12C13 12 13 12 13 12C13 12 13 12 13 12C13 12 13 12 13 12C13 12 13 12 13 12C13 12 13 12 13 12C13 12 13 12 13 12C13 12 13 12 13 12C13 12 13 12 13 12C13 12 12 12 12 12ZM13 12V4H11V12H13Z" fill="black"/>
</svg>
