<svg width="33" height="33" viewBox="0 0 33 33" fill="none" xmlns="http://www.w3.org/2000/svg">
<path d="M8.91789 22.6679C8.52737 23.0584 8.52737 23.6916 8.91789 24.0821C9.30842 24.4726 9.94158 24.4726 10.3321 24.0821L8.91789 22.6679ZM17.2071 17.2071C17.5976 16.8166 17.5976 16.1834 17.2071 15.7929C16.8166 15.4024 16.1834 15.4024 15.7929 15.7929L17.2071 17.2071ZM15.7929 15.7929C15.4024 16.1834 15.4024 16.8166 15.7929 17.2071C16.1834 17.5976 16.8166 17.5976 17.2071 17.2071L15.7929 15.7929ZM24.0821 10.3321C24.4726 9.94158 24.4726 9.30842 24.0821 8.91789C23.6916 8.52737 23.0584 8.52737 22.6679 8.91789L24.0821 10.3321ZM17.2071 15.7929C16.8166 15.4024 16.1834 15.4024 15.7929 15.7929C15.4024 16.1834 15.4024 16.8166 15.7929 17.2071L17.2071 15.7929ZM22.6679 24.0821C23.0584 24.4726 23.6916 24.4726 24.0821 24.0821C24.4726 23.6916 24.4726 23.0584 24.0821 22.6679L22.6679 24.0821ZM15.7929 17.2071C16.1834 17.5976 16.8166 17.5976 17.2071 17.2071C17.5976 16.8166 17.5976 16.1834 17.2071 15.7929L15.7929 17.2071ZM10.3321 8.91789C9.94158 8.52737 9.30842 8.52737 8.91789 8.91789C8.52737 9.30842 8.52737 9.94158 8.91789 10.3321L10.3321 8.91789ZM10.3321 24.0821L17.2071 17.2071L15.7929 15.7929L8.91789 22.6679L10.3321 24.0821ZM17.2071 17.2071L24.0821 10.3321L22.6679 8.91789L15.7929 15.7929L17.2071 17.2071ZM15.7929 17.2071L22.6679 24.0821L24.0821 22.6679L17.2071 15.7929L15.7929 17.2071ZM17.2071 15.7929L10.3321 8.91789L8.91789 10.3321L15.7929 17.2071L17.2071 15.7929Z" fill="white"/>
</svg>
