<svg width="44" height="40" viewBox="0 0 44 40" fill="none" xmlns="http://www.w3.org/2000/svg">
<path d="M18.9998 5.99992H24.9998M14.7998 4.7999V19.1999C14.7998 20.5254 15.8743 21.5999 17.1998 21.5999H26.7998C28.1253 21.5999 29.1998 20.5254 29.1998 19.1999V4.79992C29.1998 3.47443 28.1253 2.39992 26.7998 2.39992L17.1998 2.3999C15.8743 2.3999 14.7998 3.47442 14.7998 4.7999ZM21.9998 16.7999H22.0848V16.8768H21.9998V16.7999Z" stroke="#5E5E5E" stroke-width="2" stroke-linecap="round" stroke-linejoin="round"/>
<path d="M8.96465 31.2344C8.90606 30.9382 8.7905 30.6842 8.61797 30.4727C8.44544 30.2578 8.2306 30.0951 7.97344 29.9844C7.71953 29.8737 7.44121 29.8184 7.13848 29.8184C6.72832 29.8184 6.36211 29.9225 6.03984 30.1309C5.71758 30.3359 5.4653 30.637 5.28301 31.0342C5.10072 31.4313 5.00957 31.9082 5.00957 32.4648C5.00957 33.0215 5.10072 33.5 5.28301 33.9004C5.46856 34.2975 5.72083 34.5986 6.03984 34.8037C6.36211 35.0088 6.72832 35.1113 7.13848 35.1113C7.43796 35.1113 7.71465 35.0576 7.96856 34.9502C8.22246 34.8395 8.43568 34.68 8.6082 34.4717C8.78399 34.2601 8.9028 34.0078 8.96465 33.7148L10.0486 33.7246C9.97376 34.1868 9.80287 34.5986 9.53594 34.96C9.27227 35.318 8.9321 35.598 8.51543 35.7998C8.10202 35.9984 7.63978 36.0977 7.12871 36.0977C6.51348 36.0977 5.96497 35.9512 5.4832 35.6582C5.00143 35.3652 4.62383 34.9453 4.35039 34.3984C4.08021 33.8483 3.94512 33.2038 3.94512 32.4648C3.94512 31.7259 4.08184 31.083 4.35527 30.5361C4.62871 29.986 5.00632 29.5645 5.48809 29.2715C5.96986 28.9785 6.51673 28.832 7.12871 28.832C7.62676 28.832 8.08249 28.9281 8.4959 29.1201C8.90931 29.3089 9.25111 29.584 9.52129 29.9453C9.79147 30.3066 9.96725 30.7363 10.0486 31.2344H8.96465ZM13.9689 36.1074C13.4742 36.1074 13.0396 35.9935 12.6652 35.7656C12.2909 35.5378 12.0012 35.2188 11.7961 34.8086C11.591 34.3952 11.4885 33.9167 11.4885 33.373C11.4885 32.8262 11.591 32.346 11.7961 31.9326C12.0012 31.5192 12.2909 31.1986 12.6652 30.9707C13.0396 30.7428 13.4742 30.6289 13.9689 30.6289C14.4605 30.6289 14.8934 30.7428 15.2678 30.9707C15.6421 31.1986 15.9302 31.5208 16.132 31.9375C16.3371 32.3509 16.4396 32.8294 16.4396 33.373C16.4396 33.9167 16.3371 34.3952 16.132 34.8086C15.9302 35.2188 15.6421 35.5378 15.2678 35.7656C14.8934 35.9935 14.4605 36.1074 13.9689 36.1074ZM13.9689 35.2383C14.2782 35.2383 14.5386 35.1553 14.7502 34.9893C14.9618 34.8232 15.1197 34.6003 15.2238 34.3203C15.3313 34.0371 15.385 33.7214 15.385 33.373C15.385 33.0247 15.3313 32.709 15.2238 32.4258C15.1197 32.1393 14.9602 31.9115 14.7453 31.7422C14.5337 31.5729 14.2749 31.4883 13.9689 31.4883C13.6564 31.4883 13.3911 31.5729 13.173 31.7422C12.9582 31.9115 12.7971 32.1393 12.6896 32.4258C12.5855 32.709 12.5334 33.0247 12.5334 33.373C12.5334 33.7214 12.5855 34.0371 12.6896 34.3203C12.7971 34.6003 12.9582 34.8232 13.173 34.9893C13.3911 35.1553 13.6564 35.2383 13.9689 35.2383ZM19.11 36H18.065V30.6973H19.0709V31.5664H19.1295C19.2597 31.2734 19.4566 31.0439 19.7203 30.8779C19.984 30.7119 20.3079 30.6289 20.692 30.6289C21.0598 30.6289 21.3788 30.7054 21.649 30.8584C21.9192 31.0081 22.1275 31.2327 22.274 31.5322C22.4238 31.8317 22.4986 32.1979 22.4986 32.6309V36H21.4635V32.7578C21.4635 32.3737 21.3642 32.0726 21.1656 31.8545C20.9671 31.6364 20.692 31.5273 20.3404 31.5273C20.1028 31.5273 19.8896 31.5794 19.7008 31.6836C19.5152 31.7878 19.3704 31.9408 19.2662 32.1426C19.162 32.3411 19.11 32.5788 19.11 32.8555V36ZM26.8486 31.5273H25.7646V34.4375C25.7646 34.7077 25.82 34.8932 25.9307 34.9941C26.0446 35.0918 26.2008 35.1439 26.3994 35.1504C26.4906 35.1504 26.6338 35.1439 26.8291 35.1309C26.8486 35.1243 26.8812 35.1211 26.9268 35.1211V36.0293C26.7314 36.0553 26.5133 36.0684 26.2725 36.0684C25.9893 36.0684 25.7305 36.0163 25.4961 35.9121C25.2617 35.8079 25.0745 35.6501 24.9346 35.4385C24.7946 35.2236 24.7262 34.9616 24.7295 34.6523V31.5273H23.9482V30.6973H24.7295V29.4277H25.7646V30.6973H26.8486V31.5273ZM28.4643 30.6973H29.4701V31.5371H29.5287C29.6264 31.2539 29.7973 31.0309 30.0414 30.8682C30.2855 30.7021 30.5639 30.6191 30.8764 30.6191C31.0261 30.6191 31.1726 30.6257 31.3158 30.6387V31.6348C31.2572 31.6217 31.1742 31.6087 31.0668 31.5957C30.9626 31.5827 30.8633 31.5762 30.7689 31.5762C30.5313 31.5762 30.3165 31.6283 30.1244 31.7324C29.9324 31.8333 29.781 31.9749 29.6703 32.1572C29.5629 32.3363 29.5092 32.5397 29.5092 32.7676V36H28.4643V30.6973ZM34.7674 36.1074C34.2726 36.1074 33.838 35.9935 33.4637 35.7656C33.0893 35.5378 32.7996 35.2188 32.5945 34.8086C32.3895 34.3952 32.2869 33.9167 32.2869 33.373C32.2869 32.8262 32.3895 32.346 32.5945 31.9326C32.7996 31.5192 33.0893 31.1986 33.4637 30.9707C33.838 30.7428 34.2726 30.6289 34.7674 30.6289C35.2589 30.6289 35.6919 30.7428 36.0662 30.9707C36.4406 31.1986 36.7286 31.5208 36.9305 31.9375C37.1355 32.3509 37.2381 32.8294 37.2381 33.373C37.2381 33.9167 37.1355 34.3952 36.9305 34.8086C36.7286 35.2188 36.4406 35.5378 36.0662 35.7656C35.6919 35.9935 35.2589 36.1074 34.7674 36.1074ZM34.7674 35.2383C35.0766 35.2383 35.337 35.1553 35.5486 34.9893C35.7602 34.8232 35.9181 34.6003 36.0223 34.3203C36.1297 34.0371 36.1834 33.7214 36.1834 33.373C36.1834 33.0247 36.1297 32.709 36.0223 32.4258C35.9181 32.1393 35.7586 31.9115 35.5438 31.7422C35.3322 31.5729 35.0734 31.4883 34.7674 31.4883C34.4549 31.4883 34.1896 31.5729 33.9715 31.7422C33.7566 31.9115 33.5955 32.1393 33.4881 32.4258C33.3839 32.709 33.3318 33.0247 33.3318 33.373C33.3318 33.7214 33.3839 34.0371 33.4881 34.3203C33.5955 34.6003 33.7566 34.8232 33.9715 34.9893C34.1896 35.1553 34.4549 35.2383 34.7674 35.2383ZM39.9084 36H38.8635V28.9297H39.9084V36Z" fill="#5E5E5E"/>
</svg>
