<svg width="18" height="16" viewBox="0 0 18 16" fill="none" xmlns="http://www.w3.org/2000/svg">
<path fill-rule="evenodd" clip-rule="evenodd" d="M3.50001 15C2.96411 15 2.46891 14.7141 2.20096 14.25C1.93301 13.7859 1.93301 13.2141 2.20096 12.75C2.46891 12.2859 2.96411 12 3.50001 12H14.5001C15.3285 12 16.0001 12.6716 16.0001 13.5C16.0001 14.3284 15.3285 15 14.5001 15H3.50001Z" fill="#EE9D7F" stroke="#EE9D7F" stroke-width="2" stroke-linecap="round" stroke-linejoin="round"/>
<path fill-rule="evenodd" clip-rule="evenodd" d="M2 4C3.26501 6.22801 6.06503 9.56904 9.00005 4C11.9351 9.56904 14.7351 6.22801 16.0001 4L14.6001 12.0001H3.40001L2 4Z" fill="#EE9D7F" stroke="#EE9D7F" stroke-width="2" stroke-linecap="round" stroke-linejoin="round"/>
<path fill-rule="evenodd" clip-rule="evenodd" d="M9.00001 4.00002C8.17158 4.00002 7.5 3.32844 7.5 2.50001C7.5 1.67158 8.17158 1 9.00001 1C9.82844 1 10.5 1.67158 10.5 2.50001C10.5 2.89784 10.342 3.27937 10.0607 3.56068C9.77937 3.84198 9.39784 4.00002 9.00001 4.00002Z" fill="#EE9D7F" stroke="#EE9D7F" stroke-width="2" stroke-linecap="round" stroke-linejoin="round"/>
<path fill-rule="evenodd" clip-rule="evenodd" d="M16 4.00001C15.4477 4.00001 15 3.55229 15 3.00001C15 2.44772 15.4477 2 16 2C16.5523 2 17 2.44772 17 3.00001C17 3.26522 16.8947 3.51958 16.7071 3.70712C16.5196 3.89466 16.2652 4.00001 16 4.00001Z" fill="#EE9D7F" stroke="#EE9D7F" stroke-width="2" stroke-linecap="round" stroke-linejoin="round"/>
<path fill-rule="evenodd" clip-rule="evenodd" d="M1.99988 4.00001C1.4476 4.00001 0.999878 3.55229 0.999878 3.00001C0.999878 2.44772 1.4476 2 1.99988 2C2.55217 2 2.99989 2.44772 2.99989 3.00001C2.99989 3.26522 2.89453 3.51958 2.707 3.70712C2.51946 3.89466 2.2651 4.00001 1.99988 4.00001Z" fill="#EE9D7F" stroke="#EE9D7F" stroke-width="2" stroke-linecap="round" stroke-linejoin="round"/>
</svg>
