<svg width="40" height="40" viewBox="0 0 40 40" fill="none" xmlns="http://www.w3.org/2000/svg">
<circle cx="20" cy="20" r="20" fill="white"/>
<path fill-rule="evenodd" clip-rule="evenodd" d="M31.56 20.2741C31.56 19.4202 31.4834 18.5992 31.3411 17.811H20V22.469H26.4806C26.2015 23.9742 25.3531 25.2495 24.0778 26.1034V29.1247H27.9694C30.2464 27.0284 31.56 23.9413 31.56 20.2741Z" fill="#4285F4"/>
<path fill-rule="evenodd" clip-rule="evenodd" d="M20 32.0419C23.2513 32.0419 25.9771 30.9636 27.9694 29.1245L24.0778 26.1031C22.9995 26.8256 21.6202 27.2525 20 27.2525C16.8637 27.2525 14.2091 25.1343 13.2622 22.2881H9.23914V25.408C11.2205 29.3434 15.2928 32.0419 20 32.0419Z" fill="#34A853"/>
<path fill-rule="evenodd" clip-rule="evenodd" d="M13.2622 22.288C13.0214 21.5655 12.8845 20.7938 12.8845 20.0001C12.8845 19.2064 13.0214 18.4347 13.2622 17.7122V14.5923H9.23917C8.42362 16.2179 7.95837 18.057 7.95837 20.0001C7.95837 21.9432 8.42362 23.7823 9.23917 25.4079L13.2622 22.288Z" fill="#FBBC05"/>
<path fill-rule="evenodd" clip-rule="evenodd" d="M20 12.7478C21.768 12.7478 23.3553 13.3554 24.6032 14.5486L28.057 11.0948C25.9716 9.15172 23.2458 7.9585 20 7.9585C15.2928 7.9585 11.2205 10.6569 9.23914 14.5924L13.2622 17.7123C14.2091 14.866 16.8637 12.7478 20 12.7478Z" fill="#EA4335"/>
</svg>
