<svg width="44" height="40" viewBox="0 0 44 40" fill="currentColor" xmlns="http://www.w3.org/2000/svg">
<path d="M19 21V14.1528C19 13.5226 19.5373 13.0116 20.2 13.0116H23.8C24.4627 13.0116 25 13.5226 25 14.1528V21M21.3046 3.21117L13.5046 8.48603C13.188 8.7001 13 9.04665 13 9.41605V19.2882C13 20.2336 13.8059 21 14.8 21H29.2C30.1941 21 31 20.2336 31 19.2882V9.41605C31 9.04665 30.812 8.70011 30.4954 8.48603L22.6954 3.21117C22.2791 2.92961 21.7209 2.92961 21.3046 3.21117Z" stroke="currentColor" stroke-width="2" stroke-linecap="round"/>
<path d="M8.35098 28.9297H9.4252V31.9961H12.9408V28.9297H14.015V36H12.9408V32.9141H9.4252V36H8.35098V28.9297ZM18.2186 36.1074C17.7238 36.1074 17.2892 35.9935 16.9148 35.7656C16.5405 35.5378 16.2508 35.2188 16.0457 34.8086C15.8406 34.3952 15.7381 33.9167 15.7381 33.373C15.7381 32.8262 15.8406 32.346 16.0457 31.9326C16.2508 31.5192 16.5405 31.1986 16.9148 30.9707C17.2892 30.7428 17.7238 30.6289 18.2186 30.6289C18.7101 30.6289 19.143 30.7428 19.5174 30.9707C19.8917 31.1986 20.1798 31.5208 20.3816 31.9375C20.5867 32.3509 20.6893 32.8294 20.6893 33.373C20.6893 33.9167 20.5867 34.3952 20.3816 34.8086C20.1798 35.2188 19.8917 35.5378 19.5174 35.7656C19.143 35.9935 18.7101 36.1074 18.2186 36.1074ZM18.2186 35.2383C18.5278 35.2383 18.7882 35.1553 18.9998 34.9893C19.2114 34.8232 19.3693 34.6003 19.4734 34.3203C19.5809 34.0371 19.6346 33.7214 19.6346 33.373C19.6346 33.0247 19.5809 32.709 19.4734 32.4258C19.3693 32.1393 19.2098 31.9115 18.9949 31.7422C18.7833 31.5729 18.5245 31.4883 18.2186 31.4883C17.9061 31.4883 17.6408 31.5729 17.4227 31.7422C17.2078 31.9115 17.0467 32.1393 16.9393 32.4258C16.8351 32.709 16.783 33.0247 16.783 33.373C16.783 33.7214 16.8351 34.0371 16.9393 34.3203C17.0467 34.6003 17.2078 34.8232 17.4227 34.9893C17.6408 35.1553 17.9061 35.2383 18.2186 35.2383ZM22.3146 30.6973H23.3205V31.5664H23.3791C23.493 31.2669 23.6737 31.0358 23.9211 30.873C24.1717 30.7103 24.4729 30.6289 24.8244 30.6289C25.1727 30.6289 25.4689 30.7119 25.7131 30.8779C25.9572 31.0407 26.1363 31.2702 26.2502 31.5664H26.3088C26.439 31.2734 26.6408 31.0439 26.9143 30.8779C27.1909 30.7119 27.5197 30.6289 27.9006 30.6289C28.2261 30.6289 28.5109 30.6973 28.7551 30.834C29.0025 30.9707 29.1945 31.1758 29.3312 31.4492C29.4712 31.7194 29.5412 32.0514 29.5412 32.4453V36H28.4963V32.543C28.4963 32.2044 28.4035 31.9505 28.218 31.7812C28.0324 31.612 27.7932 31.5273 27.5002 31.5273C27.2821 31.5273 27.0933 31.5745 26.9338 31.6689C26.7743 31.7601 26.6522 31.8887 26.5676 32.0547C26.4862 32.2207 26.4455 32.4095 26.4455 32.6211V36H25.4104V32.4844C25.4104 32.2956 25.3697 32.1296 25.2883 31.9863C25.2069 31.8398 25.093 31.7275 24.9465 31.6494C24.8 31.568 24.6324 31.5273 24.4436 31.5273C24.2482 31.5273 24.0676 31.5794 23.9016 31.6836C23.7355 31.7845 23.6037 31.9261 23.5061 32.1084C23.4084 32.2907 23.3596 32.4974 23.3596 32.7285V36H22.3146V30.6973ZM33.6861 36.1074C33.1718 36.1074 32.7242 35.9951 32.3434 35.7705C31.9658 35.5459 31.6744 35.2285 31.4693 34.8184C31.2675 34.4082 31.1666 33.9297 31.1666 33.3828C31.1666 32.8424 31.2675 32.3639 31.4693 31.9473C31.6744 31.5306 31.9625 31.2067 32.3336 30.9756C32.7047 30.7445 33.1327 30.6289 33.6178 30.6289C34.0442 30.6289 34.4348 30.7217 34.7896 30.9072C35.1445 31.0928 35.4293 31.3857 35.6441 31.7861C35.8622 32.1833 35.9713 32.6862 35.9713 33.2949V33.666H32.2018C32.2115 33.9948 32.2783 34.2796 32.402 34.5205C32.5289 34.7581 32.7031 34.9388 32.9244 35.0625C33.1458 35.1862 33.4029 35.248 33.6959 35.248C33.9791 35.248 34.2184 35.196 34.4137 35.0918C34.609 34.9844 34.7538 34.8444 34.8482 34.6719H35.9029C35.8248 34.9583 35.6848 35.2106 35.483 35.4287C35.2812 35.6436 35.0257 35.8112 34.7164 35.9316C34.4104 36.0488 34.067 36.1074 33.6861 36.1074ZM34.9459 32.8848C34.9459 32.6146 34.8906 32.3737 34.7799 32.1621C34.6725 31.9505 34.5195 31.7861 34.3209 31.6689C34.1223 31.5485 33.8912 31.4883 33.6275 31.4883C33.3574 31.4883 33.1165 31.5518 32.9049 31.6787C32.6965 31.8024 32.5322 31.9717 32.4117 32.1865C32.2913 32.3981 32.2229 32.6309 32.2066 32.8848H34.9459Z" fill="currentColor"/>
</svg>
