<svg width="24" height="24" viewBox="0 0 24 24" fill="none" xmlns="http://www.w3.org/2000/svg">
<path d="M1 19V16.5719C1 16.076 1.12396 15.6167 1.37188 15.1938C1.61979 14.7708 1.9625 14.45 2.4 14.2312C2.60417 14.1292 2.80104 14.0344 2.99063 13.9469C3.19479 13.8594 3.40625 13.7792 3.625 13.7063V19H1ZM4.5 12.875C3.77083 12.875 3.15104 12.6198 2.64063 12.1094C2.13021 11.599 1.875 10.9792 1.875 10.25C1.875 9.52083 2.13021 8.90104 2.64063 8.39062C3.15104 7.88021 3.77083 7.625 4.5 7.625C5.22917 7.625 5.84896 7.88021 6.35938 8.39062C6.86979 8.90104 7.125 9.52083 7.125 10.25C7.125 10.9792 6.86979 11.599 6.35938 12.1094C5.84896 12.6198 5.22917 12.875 4.5 12.875ZM4.5 11.125C4.74792 11.125 4.95208 11.0448 5.1125 10.8844C5.2875 10.7094 5.375 10.4979 5.375 10.25C5.375 10.0021 5.2875 9.79792 5.1125 9.6375C4.95208 9.4625 4.74792 9.375 4.5 9.375C4.25208 9.375 4.04063 9.4625 3.86563 9.6375C3.70521 9.79792 3.625 10.0021 3.625 10.25C3.625 10.4979 3.70521 10.7094 3.86563 10.8844C4.04063 11.0448 4.25208 11.125 4.5 11.125ZM4.5 19V16.55C4.5 16.0542 4.62396 15.6021 4.87188 15.1938C5.13438 14.7708 5.47708 14.45 5.9 14.2312C6.80417 13.7792 7.72292 13.4438 8.65625 13.225C9.58958 12.9917 10.5375 12.875 11.5 12.875C12.4625 12.875 13.4104 12.9917 14.3438 13.225C15.2771 13.4438 16.1958 13.7792 17.1 14.2312C17.5229 14.45 17.8583 14.7708 18.1063 15.1938C18.3688 15.6021 18.5 16.0542 18.5 16.55V19H4.5ZM6.25 17.25H16.75V16.55C16.75 16.3896 16.7063 16.2438 16.6188 16.1125C16.5458 15.9813 16.4438 15.8792 16.3125 15.8062C15.525 15.4125 14.7302 15.1208 13.9281 14.9313C13.126 14.7271 12.3167 14.625 11.5 14.625C10.6833 14.625 9.87396 14.7271 9.07188 14.9313C8.26979 15.1208 7.475 15.4125 6.6875 15.8062C6.55625 15.8792 6.44688 15.9813 6.35938 16.1125C6.28646 16.2438 6.25 16.3896 6.25 16.55V17.25ZM11.5 12C10.5375 12 9.71354 11.6573 9.02812 10.9719C8.34271 10.2865 8 9.4625 8 8.5C8 7.5375 8.34271 6.71354 9.02812 6.02813C9.71354 5.34271 10.5375 5 11.5 5C12.4625 5 13.2865 5.34271 13.9719 6.02813C14.6573 6.71354 15 7.5375 15 8.5C15 9.4625 14.6573 10.2865 13.9719 10.9719C13.2865 11.6573 12.4625 12 11.5 12ZM11.5 10.25C11.9812 10.25 12.3896 10.0823 12.725 9.74688C13.075 9.39688 13.25 8.98125 13.25 8.5C13.25 8.01875 13.075 7.61042 12.725 7.275C12.3896 6.925 11.9812 6.75 11.5 6.75C11.0188 6.75 10.6031 6.925 10.2531 7.275C9.91771 7.61042 9.75 8.01875 9.75 8.5C9.75 8.98125 9.91771 9.39688 10.2531 9.74688C10.6031 10.0823 11.0188 10.25 11.5 10.25ZM18.5 12.875C17.7708 12.875 17.151 12.6198 16.6406 12.1094C16.1302 11.599 15.875 10.9792 15.875 10.25C15.875 9.52083 16.1302 8.90104 16.6406 8.39062C17.151 7.88021 17.7708 7.625 18.5 7.625C19.2292 7.625 19.849 7.88021 20.3594 8.39062C20.8698 8.90104 21.125 9.52083 21.125 10.25C21.125 10.9792 20.8698 11.599 20.3594 12.1094C19.849 12.6198 19.2292 12.875 18.5 12.875ZM18.5 11.125C18.7479 11.125 18.9521 11.0448 19.1125 10.8844C19.2875 10.7094 19.375 10.4979 19.375 10.25C19.375 10.0021 19.2875 9.79792 19.1125 9.6375C18.9521 9.4625 18.7479 9.375 18.5 9.375C18.2521 9.375 18.0406 9.4625 17.8656 9.6375C17.7052 9.79792 17.625 10.0021 17.625 10.25C17.625 10.4979 17.7052 10.7094 17.8656 10.8844C18.0406 11.0448 18.2521 11.125 18.5 11.125ZM19.375 19V13.7063C19.5938 13.7792 19.7979 13.8594 19.9875 13.9469C20.1917 14.0344 20.3958 14.1292 20.6 14.2312C21.0375 14.45 21.3802 14.7708 21.6281 15.1938C21.876 15.6167 22 16.076 22 16.5719V19H19.375Z" fill="#1D1B20"/>
</svg>
