<svg width="44" height="40" viewBox="0 0 44 40" fill="none" xmlns="http://www.w3.org/2000/svg">
<path d="M12.3999 20.5123C12.3999 16.7368 15.5542 13.6761 21.9999 13.6761C28.4456 13.6761 31.5999 16.7368 31.5999 20.5123C31.5999 21.113 31.1617 21.5999 30.6211 21.5999H13.3787C12.8381 21.5999 12.3999 21.113 12.3999 20.5123Z" stroke="currentColor" stroke-width="2"/>
<path d="M25.5999 5.9999C25.5999 7.98813 23.9881 9.5999 21.9999 9.5999C20.0117 9.5999 18.3999 7.98813 18.3999 5.9999C18.3999 4.01168 20.0117 2.3999 21.9999 2.3999C23.9881 2.3999 25.5999 4.01168 25.5999 5.9999Z" stroke="currentColor" stroke-width="2"/>
<path d="M16.7195 28.9297L18.9559 34.4082H19.0437L21.2801 28.9297H22.5887V36H21.5633V30.8926H21.4949L19.4246 35.9902H18.575L16.4949 30.8828H16.4363V36H15.4109V28.9297H16.7195ZM25.1906 37.9922C24.9562 37.9922 24.7707 37.9824 24.634 37.9629V37.0938C24.7902 37.1068 24.9465 37.1133 25.1027 37.1133C25.2362 37.1133 25.3469 37.1003 25.4348 37.0742C25.5227 37.0482 25.6089 36.9847 25.6936 36.8838C25.7814 36.7829 25.8645 36.6283 25.9426 36.4199L26.0695 36.0684L24.1262 30.6973H25.2395L26.5773 34.8086H26.6359L27.9738 30.6973H29.0969L26.9094 36.7031C26.7564 37.1296 26.5383 37.4502 26.2551 37.665C25.9751 37.8831 25.6203 37.9922 25.1906 37.9922Z" fill="currentColor"/>
</svg>
