<svg width="52" height="52" viewBox="0 0 52 52" fill="none" xmlns="http://www.w3.org/2000/svg">
<g filter="url(#filter0_d_23_12)">
<path d="M51 26C51 39.8071 39.8071 51 26 51C12.1929 51 1 39.8071 1 26C1 12.1929 12.1929 1 26 1C39.8071 1 51 12.1929 51 26Z" fill="#63676B"/>
</g>
<path d="M51 26C51 39.8071 39.8071 51 26 51C12.1929 51 1 39.8071 1 26C1 12.1929 12.1929 1 26 1C39.8071 1 51 12.1929 51 26Z" fill="#6B705C" stroke="url(#paint0_linear_23_12)" stroke-opacity="0.8" stroke-width="0.578316"/>
<path fill-rule="evenodd" clip-rule="evenodd" d="M25.5282 16.6107L35.0097 23.7544C35.631 24.1949 36 24.9077 36 25.6674C36 26.4272 35.631 27.14 35.0097 27.5805L25.5282 35.3897C24.726 36.0292 23.6364 36.1786 22.6908 35.7788C21.7451 35.379 21.0958 34.4945 21 33.4754V18.52C21.0974 17.5018 21.7473 16.6188 22.6927 16.2202C23.6381 15.8216 24.7267 15.9715 25.5282 16.6107Z" stroke="#FAFAFA" stroke-width="1.5" stroke-linecap="round" stroke-linejoin="round"/>
<defs>
<filter id="filter0_d_23_12" x="0.80496" y="0.609919" width="50.195" height="50.3901" filterUnits="userSpaceOnUse" color-interpolation-filters="sRGB">
<feFlood flood-opacity="0" result="BackgroundImageFix"/>
<feColorMatrix in="SourceAlpha" type="matrix" values="0 0 0 0 0 0 0 0 0 0 0 0 0 0 0 0 0 0 127 0" result="hardAlpha"/>
<feOffset dx="-0.19504" dy="-0.390081"/>
<feComposite in2="hardAlpha" operator="out"/>
<feColorMatrix type="matrix" values="0 0 0 0 1 0 0 0 0 1 0 0 0 0 1 0 0 0 0.6 0"/>
<feBlend mode="normal" in2="BackgroundImageFix" result="effect1_dropShadow_23_12"/>
<feBlend mode="normal" in="SourceGraphic" in2="effect1_dropShadow_23_12" result="shape"/>
</filter>
<linearGradient id="paint0_linear_23_12" x1="-5.88506" y1="-8.02299" x2="23.7126" y2="31.3448" gradientUnits="userSpaceOnUse">
<stop stop-color="#D8D8D8" stop-opacity="0"/>
<stop offset="1" stop-color="white"/>
</linearGradient>
</defs>
</svg>
