<svg width="44" height="40" viewBox="0 0 44 40" fill="none" xmlns="http://www.w3.org/2000/svg">
<path d="M26.3539 7.65238L26.3475 7.65235M29.5224 2.85129L23.7221 2.40511C23.2078 2.36555 22.702 2.55269 22.3373 2.91739L12.9174 12.3373C12.2274 13.0272 12.2274 14.1459 12.9174 14.8359L19.1639 21.0824C19.8539 21.7724 20.9726 21.7724 21.6625 21.0824L31.0824 11.6626C31.4471 11.2978 31.6342 10.792 31.5947 10.2777L31.1485 4.47737C31.0817 3.6085 30.3913 2.91813 29.5224 2.85129Z" stroke="#5E5E5E" stroke-width="2" stroke-linecap="round" stroke-linejoin="round"/>
<path d="M12.1916 30.7949C12.159 30.4727 12.0109 30.2204 11.7473 30.0381C11.4836 29.8525 11.1467 29.7598 10.7365 29.7598C10.4533 29.7598 10.2043 29.8053 9.98945 29.8965C9.77461 29.9844 9.60859 30.1081 9.49141 30.2676C9.37747 30.4238 9.32051 30.6029 9.32051 30.8047C9.32051 31.1042 9.44258 31.3337 9.68672 31.4932C9.93086 31.6527 10.2385 31.778 10.6096 31.8691L11.2932 32.0547C11.8628 32.1882 12.3446 32.4095 12.7385 32.7188C13.1324 33.028 13.3309 33.4707 13.3342 34.0469C13.3309 34.4473 13.2251 34.8037 13.0168 35.1162C12.8085 35.4287 12.5074 35.6745 12.1135 35.8535C11.7196 36.0293 11.2508 36.1172 10.7072 36.1172C10.1831 36.1172 9.72578 36.0342 9.33516 35.8682C8.94779 35.6989 8.64342 35.458 8.42207 35.1455C8.20397 34.833 8.08353 34.4635 8.06074 34.0371H9.13496C9.16751 34.4082 9.32865 34.6914 9.61836 34.8867C9.90807 35.082 10.271 35.1797 10.7072 35.1797C11.0035 35.1797 11.2688 35.1325 11.5031 35.0381C11.7408 34.9404 11.9263 34.8053 12.0598 34.6328C12.1965 34.457 12.2665 34.2552 12.2697 34.0273C12.2665 33.7441 12.1509 33.5244 11.923 33.3682C11.6952 33.2087 11.3648 33.0736 10.9318 32.9629L10.092 32.7383C8.86152 32.3997 8.24629 31.7747 8.24629 30.8633C8.24629 30.4661 8.35534 30.113 8.57344 29.8037C8.79479 29.4945 9.09753 29.2552 9.48164 29.0859C9.86576 28.9167 10.2938 28.832 10.7658 28.832C11.2378 28.832 11.6594 28.9167 12.0305 29.0859C12.4016 29.252 12.6929 29.4847 12.9045 29.7842C13.1161 30.0804 13.2268 30.4173 13.2365 30.7949H12.1916ZM17.2447 36.1074C16.7402 36.1074 16.3007 35.9919 15.9264 35.7607C15.552 35.5264 15.2639 35.2025 15.0621 34.7891C14.8635 34.3757 14.7643 33.9036 14.7643 33.373C14.7643 32.8359 14.8652 32.3607 15.067 31.9473C15.2721 31.5306 15.5602 31.2067 15.9312 30.9756C16.3023 30.7445 16.7337 30.6289 17.2252 30.6289C17.6256 30.6289 17.9853 30.7038 18.3043 30.8535C18.6233 31 18.8805 31.2083 19.0758 31.4785C19.2711 31.7487 19.3867 32.0612 19.4225 32.416H18.4068C18.3482 32.1523 18.218 31.9342 18.0162 31.7617C17.8144 31.5859 17.5572 31.498 17.2447 31.498C16.9583 31.498 16.706 31.5729 16.4879 31.7227C16.273 31.8724 16.1054 32.0872 15.985 32.3672C15.8678 32.6439 15.8092 32.9694 15.8092 33.3438C15.8092 33.7279 15.8678 34.0615 15.985 34.3447C16.1054 34.6247 16.273 34.8411 16.4879 34.9941C16.7027 35.1439 16.955 35.2188 17.2447 35.2188C17.541 35.2188 17.7932 35.1406 18.0016 34.9844C18.2099 34.8249 18.345 34.6035 18.4068 34.3203H19.4225C19.3834 34.6654 19.2695 34.973 19.0807 35.2432C18.8951 35.5133 18.6445 35.7249 18.3287 35.8779C18.013 36.0309 17.6516 36.1074 17.2447 36.1074ZM23.2939 36.1074C22.7796 36.1074 22.332 35.9951 21.9512 35.7705C21.5736 35.5459 21.2822 35.2285 21.0771 34.8184C20.8753 34.4082 20.7744 33.9297 20.7744 33.3828C20.7744 32.8424 20.8753 32.3639 21.0771 31.9473C21.2822 31.5306 21.5703 31.2067 21.9414 30.9756C22.3125 30.7445 22.7406 30.6289 23.2256 30.6289C23.652 30.6289 24.0426 30.7217 24.3975 30.9072C24.7523 31.0928 25.0371 31.3857 25.252 31.7861C25.4701 32.1833 25.5791 32.6862 25.5791 33.2949V33.666H21.8096C21.8193 33.9948 21.8861 34.2796 22.0098 34.5205C22.1367 34.7581 22.3109 34.9388 22.5322 35.0625C22.7536 35.1862 23.0107 35.248 23.3037 35.248C23.5869 35.248 23.8262 35.196 24.0215 35.0918C24.2168 34.9844 24.3617 34.8444 24.4561 34.6719H25.5107C25.4326 34.9583 25.2926 35.2106 25.0908 35.4287C24.889 35.6436 24.6335 35.8112 24.3242 35.9316C24.0182 36.0488 23.6748 36.1074 23.2939 36.1074ZM24.5537 32.8848C24.5537 32.6146 24.4984 32.3737 24.3877 32.1621C24.2803 31.9505 24.1273 31.7861 23.9287 31.6689C23.7301 31.5485 23.499 31.4883 23.2354 31.4883C22.9652 31.4883 22.7243 31.5518 22.5127 31.6787C22.3044 31.8024 22.14 31.9717 22.0195 32.1865C21.8991 32.3981 21.8307 32.6309 21.8145 32.8848H24.5537ZM28.2592 36H27.2143V30.6973H28.2201V31.5664H28.2787C28.4089 31.2734 28.6059 31.0439 28.8695 30.8779C29.1332 30.7119 29.4571 30.6289 29.8412 30.6289C30.209 30.6289 30.5281 30.7054 30.7982 30.8584C31.0684 31.0081 31.2768 31.2327 31.4232 31.5322C31.573 31.8317 31.6479 32.1979 31.6479 32.6309V36H30.6127V32.7578C30.6127 32.3737 30.5134 32.0726 30.3148 31.8545C30.1163 31.6364 29.8412 31.5273 29.4896 31.5273C29.252 31.5273 29.0388 31.5794 28.85 31.6836C28.6645 31.7878 28.5196 31.9408 28.4154 32.1426C28.3113 32.3411 28.2592 32.5788 28.2592 32.8555V36ZM35.9979 31.5273H34.9139V34.4375C34.9139 34.7077 34.9692 34.8932 35.0799 34.9941C35.1938 35.0918 35.3501 35.1439 35.5486 35.1504C35.6398 35.1504 35.783 35.1439 35.9783 35.1309C35.9979 35.1243 36.0304 35.1211 36.076 35.1211V36.0293C35.8807 36.0553 35.6626 36.0684 35.4217 36.0684C35.1385 36.0684 34.8797 36.0163 34.6453 35.9121C34.4109 35.8079 34.2238 35.6501 34.0838 35.4385C33.9438 35.2236 33.8755 34.9616 33.8787 34.6523V31.5273H33.0975V30.6973H33.8787V29.4277H34.9139V30.6973H35.9979V31.5273Z" fill="#5E5E5E"/>
</svg>
