<svg width="55" height="18" viewBox="0 0 55 18" fill="none" xmlns="http://www.w3.org/2000/svg">
<path d="M47.7666 17.5859C47.626 17.5859 47.5322 17.5801 47.4854 17.5684V17.0234L47.749 17.041C48.1533 17.041 48.5195 16.9355 48.8477 16.7246C49.1758 16.5137 49.4541 16.0977 49.6826 15.4766L50.1572 14.1582L46.6768 4.45508H47.2744L50.4209 13.2793H50.4736L53.6025 4.45508H54.2178L50.1924 15.6875C49.9697 16.3203 49.6592 16.7949 49.2607 17.1113C48.8623 17.4277 48.3643 17.5859 47.7666 17.5859Z" fill="#6B705C"/>
<path d="M46.3936 4.98242H44.3193L44.3018 14H43.7393V4.98242H42.4033V4.45508H43.7393V2.92578C43.7393 2.23438 43.9209 1.68945 44.2842 1.29102C44.6475 0.892578 45.1572 0.693359 45.8135 0.693359C46.0361 0.693359 46.2764 0.716797 46.5342 0.763672V1.30859C46.3467 1.26172 46.124 1.23828 45.8662 1.23828C45.3623 1.23828 44.9785 1.39062 44.7148 1.69531C44.4512 2 44.3193 2.42773 44.3193 2.97852V4.45508H46.3936V4.98242Z" fill="#6B705C"/>
<path d="M40.4502 4.45508H41.0127V14H40.4502V4.45508ZM40.7314 2.73242C40.5967 2.73242 40.4795 2.68555 40.3799 2.5918C40.2861 2.49805 40.2393 2.38086 40.2393 2.24023C40.2393 2.10547 40.2891 1.99121 40.3887 1.89746C40.4883 1.79785 40.6025 1.74805 40.7314 1.74805C40.8721 1.74805 40.9922 1.79785 41.0918 1.89746C41.1914 1.99121 41.2412 2.10547 41.2412 2.24023C41.2412 2.38086 41.1914 2.49805 41.0918 2.5918C40.9922 2.68555 40.8721 2.73242 40.7314 2.73242Z" fill="#6B705C"/>
<path d="M38.8135 4.98242H36.8096V11.873C36.8096 12.2363 36.8857 12.5498 37.0381 12.8135C37.1963 13.0713 37.4043 13.2705 37.6621 13.4111C37.9258 13.5459 38.21 13.6133 38.5146 13.6133L39.0947 13.5957V14.1406C39.0127 14.1523 38.8135 14.1582 38.4971 14.1582C38.0928 14.1582 37.7178 14.0703 37.3721 13.8945C37.0322 13.7129 36.7598 13.4521 36.5547 13.1123C36.3496 12.7725 36.2471 12.377 36.2471 11.9258V4.98242H34.8408V4.45508H36.2471V2.16992H36.8096V4.45508H38.8135V4.98242Z" fill="#6B705C"/>
<path d="M27.5967 14H27.0166V4.45508H27.5791V5.9668H27.6494C27.8721 5.46875 28.2354 5.07324 28.7393 4.78027C29.249 4.48145 29.835 4.33203 30.4971 4.33203C31.1299 4.33203 31.6924 4.46973 32.1846 4.74512C32.6768 5.02051 33.0605 5.41016 33.3359 5.91406C33.6113 6.41211 33.749 6.98633 33.749 7.63672V14H33.1689V7.6543C33.1689 7.10938 33.0547 6.62598 32.8262 6.2041C32.5977 5.78223 32.2754 5.45703 31.8594 5.22852C31.4434 4.99414 30.9658 4.87695 30.4268 4.87695C29.8818 4.87695 29.3926 4.99707 28.959 5.2373C28.5312 5.47168 28.1973 5.80273 27.957 6.23047C27.7168 6.65234 27.5967 7.13867 27.5967 7.68945V14Z" fill="#6B705C"/>
<path d="M21.9346 14.1934C21.1025 14.1934 20.3672 13.9795 19.7285 13.5518C19.0957 13.124 18.6035 12.5352 18.252 11.7852C17.9062 11.0352 17.7334 10.1914 17.7334 9.25391C17.7334 8.32227 17.9062 7.48145 18.252 6.73145C18.6035 5.97559 19.084 5.38379 19.6934 4.95605C20.3027 4.52832 20.9854 4.31445 21.7412 4.31445C22.4619 4.31445 23.1211 4.51074 23.7188 4.90332C24.3223 5.2959 24.7998 5.84082 25.1514 6.53809C25.5029 7.22949 25.6787 8.00586 25.6787 8.86719V9.30664H18.2959C18.3018 10.1211 18.4512 10.8594 18.7441 11.5215C19.0371 12.1777 19.4561 12.6963 20.001 13.0771C20.5518 13.458 21.1963 13.6484 21.9346 13.6484C22.4443 13.6484 22.8926 13.5605 23.2793 13.3848C23.6719 13.2031 23.9912 12.9893 24.2373 12.7432C24.4834 12.4912 24.6709 12.2422 24.7998 11.9961H25.415C25.2803 12.3652 25.0547 12.7168 24.7383 13.0508C24.4219 13.3848 24.0234 13.6602 23.543 13.877C23.0625 14.0879 22.5264 14.1934 21.9346 14.1934ZM25.0986 8.76172C25.0986 8.04688 24.9492 7.39062 24.6504 6.79297C24.3516 6.19531 23.9443 5.72363 23.4287 5.37793C22.9189 5.03223 22.3564 4.85938 21.7412 4.85938C21.1318 4.85938 20.5723 5.0293 20.0625 5.36914C19.5586 5.70898 19.1484 6.17773 18.832 6.77539C18.5215 7.36719 18.3457 8.0293 18.3047 8.76172H25.0986Z" fill="#6B705C"/>
<path d="M13.4775 14.1934C12.6924 14.1934 11.9922 13.9795 11.377 13.5518C10.7617 13.124 10.2812 12.5352 9.93555 11.7852C9.58984 11.0352 9.41699 10.1914 9.41699 9.25391C9.41699 8.32812 9.58984 7.49023 9.93555 6.74023C10.2812 5.98438 10.7617 5.39258 11.377 4.96484C11.9922 4.53125 12.6865 4.31445 13.46 4.31445C14.04 4.31445 14.5762 4.4375 15.0684 4.68359C15.5664 4.92969 15.9795 5.27539 16.3076 5.7207C16.6357 6.16602 16.8467 6.67578 16.9404 7.25H16.3428C16.2607 6.78711 16.085 6.37402 15.8154 6.01074C15.5518 5.64746 15.2148 5.36621 14.8047 5.16699C14.4004 4.96191 13.958 4.85938 13.4775 4.85938C12.8154 4.85938 12.2178 5.0498 11.6846 5.43066C11.1572 5.80566 10.7412 6.32715 10.4365 6.99512C10.1318 7.66309 9.97949 8.41602 9.97949 9.25391C9.97949 10.0742 10.126 10.8213 10.4189 11.4951C10.7178 12.1631 11.1309 12.6904 11.6582 13.0771C12.1914 13.458 12.7979 13.6484 13.4775 13.6484C13.9639 13.6484 14.4121 13.5488 14.8223 13.3496C15.2324 13.1504 15.5723 12.8662 15.8418 12.4971C16.1113 12.1279 16.2842 11.6973 16.3604 11.2051H16.958C16.8643 11.7969 16.6562 12.3184 16.334 12.7695C16.0117 13.2207 15.6016 13.5723 15.1035 13.8242C14.6113 14.0703 14.0693 14.1934 13.4775 14.1934Z" fill="#6B705C"/>
<path d="M7.6748 4.45508C7.63379 3.89844 7.47266 3.40625 7.19141 2.97852C6.91016 2.55078 6.52637 2.21973 6.04004 1.98535C5.55957 1.74512 5.00879 1.625 4.3877 1.625C3.75488 1.625 3.18945 1.74512 2.69141 1.98535C2.19336 2.21973 1.80371 2.54785 1.52246 2.96973C1.24121 3.38574 1.10059 3.85742 1.10059 4.38477C1.10059 5.01758 1.32324 5.55078 1.76855 5.98438C2.21387 6.41211 2.87012 6.75781 3.7373 7.02148L5.16113 7.46094C6.23926 7.7832 7.05371 8.20508 7.60449 8.72656C8.15527 9.24805 8.43066 9.91602 8.43066 10.7305C8.43066 11.3926 8.25781 11.9902 7.91211 12.5234C7.56641 13.0508 7.08008 13.4639 6.45312 13.7627C5.82617 14.0615 5.10254 14.2109 4.28223 14.2109C3.49707 14.2109 2.80566 14.0762 2.20801 13.8066C1.61035 13.5312 1.13867 13.1475 0.792969 12.6553C0.453125 12.1631 0.262695 11.5977 0.22168 10.959H0.801758C0.842773 11.4922 1.0127 11.9639 1.31152 12.374C1.61035 12.7783 2.01465 13.0918 2.52441 13.3145C3.03418 13.5371 3.62012 13.6484 4.28223 13.6484C4.98535 13.6484 5.60645 13.5283 6.14551 13.2881C6.68457 13.042 7.10352 12.6992 7.40234 12.2598C7.70117 11.8145 7.85059 11.3047 7.85059 10.7305C7.85059 10.0625 7.62207 9.51758 7.16504 9.0957C6.71387 8.67383 5.99316 8.31055 5.00293 8.00586L3.54395 7.56641C2.53613 7.25586 1.78027 6.83984 1.27637 6.31836C0.772461 5.79102 0.520508 5.15234 0.520508 4.40234C0.520508 3.77539 0.6875 3.20996 1.02148 2.70605C1.36133 2.19629 1.82422 1.79785 2.41016 1.51074C3.00195 1.22363 3.66113 1.08008 4.3877 1.08008C5.12012 1.08008 5.77051 1.22656 6.33887 1.51953C6.91309 1.80664 7.36426 2.20508 7.69238 2.71484C8.02637 3.22461 8.21387 3.80469 8.25488 4.45508H7.6748Z" fill="#6B705C"/>
</svg>
