<svg width="60" height="19" viewBox="0 0 60 19" fill="none" xmlns="http://www.w3.org/2000/svg">
<path d="M59.4444 4.28027L53.9004 18.5723H53.5224L55.2864 14.0543L51.1104 4.28027H51.4704L55.4664 13.6223L59.0844 4.28027H59.4444Z" fill="#6B705C"/>
<path d="M51.1139 1.04018C50.0699 1.04018 49.3439 1.24418 48.9359 1.65218C48.5279 2.04817 48.3239 2.69618 48.3239 3.59618V4.28018H51.1139V4.65817H48.3239V14.0002H47.9639V4.65817H46.3799V4.28018H47.9639V3.59618C47.9639 2.61218 48.2039 1.88018 48.6839 1.40018C49.1639 0.920176 49.9739 0.680176 51.1139 0.680176V1.04018Z" fill="#6B705C"/>
<path d="M45.302 1.79622C45.17 1.79622 45.056 1.75422 44.96 1.67022C44.876 1.57422 44.834 1.45422 44.834 1.31022C44.834 1.16622 44.876 1.05222 44.96 0.968219C45.056 0.872219 45.17 0.824219 45.302 0.824219C45.434 0.824219 45.542 0.872219 45.626 0.968219C45.722 1.05222 45.77 1.16622 45.77 1.31022C45.77 1.45422 45.722 1.57422 45.626 1.67022C45.542 1.75422 45.434 1.79622 45.302 1.79622ZM45.482 4.28022V14.0002H45.122V4.28022H45.482Z" fill="#6B705C"/>
<path d="M40.8141 4.64039V11.4444C40.8141 12.0324 40.8801 12.4824 41.0121 12.7944C41.1441 13.1064 41.3541 13.3284 41.6421 13.4604C41.9301 13.5804 42.3321 13.6404 42.8481 13.6404H43.8741V14.0004H42.8121C41.9721 14.0004 41.3661 13.8084 40.9941 13.4244C40.6341 13.0404 40.4541 12.3804 40.4541 11.4444V4.64039H38.8701V4.28039H40.4541V1.79639H40.8141V4.28039H43.8741V4.64039H40.8141Z" fill="#6B705C"/>
<path d="M34.1594 4.06396C35.2994 4.06396 36.2354 4.41796 36.9674 5.12597C37.6994 5.83397 38.0654 6.90197 38.0654 8.32997V14H37.7234V8.29397C37.7234 7.02197 37.4054 6.05597 36.7694 5.39597C36.1334 4.72397 35.2634 4.38797 34.1594 4.38797C33.0074 4.38797 32.0834 4.76597 31.3874 5.52197C30.6914 6.26597 30.3434 7.36997 30.3434 8.83397V14H29.9834V4.27997H30.3434V6.83597C30.5714 5.93597 31.0274 5.25197 31.7114 4.78397C32.3954 4.30396 33.2114 4.06396 34.1594 4.06396Z" fill="#6B705C"/>
<path d="M23.9105 13.8023C25.0025 13.8023 25.9205 13.5263 26.6645 12.9743C27.4085 12.4223 27.8585 11.6663 28.0145 10.7063H28.3745C28.2065 11.7263 27.7265 12.5543 26.9345 13.1903C26.1545 13.8143 25.1465 14.1263 23.9105 14.1263C23.0105 14.1263 22.2065 13.9283 21.4985 13.5323C20.7905 13.1363 20.2325 12.5603 19.8245 11.8043C19.4285 11.0483 19.2305 10.1603 19.2305 9.1403C19.2305 8.1203 19.4285 7.2323 19.8245 6.4763C20.2325 5.7203 20.7905 5.1443 21.4985 4.7483C22.2065 4.3523 23.0105 4.1543 23.9105 4.1543C24.8585 4.1543 25.6685 4.3583 26.3405 4.7663C27.0125 5.1623 27.5165 5.6783 27.8525 6.3143C28.2005 6.9503 28.3745 7.6223 28.3745 8.3303C28.3745 8.7623 28.3685 9.0863 28.3565 9.3023H19.5905C19.6025 10.2983 19.8065 11.1323 20.2025 11.8043C20.6105 12.4763 21.1385 12.9803 21.7865 13.3163C22.4345 13.6403 23.1425 13.8023 23.9105 13.8023ZM23.9105 4.4783C23.1425 4.4783 22.4345 4.6463 21.7865 4.9823C21.1385 5.3063 20.6105 5.8043 20.2025 6.4763C19.8065 7.1483 19.6025 7.9823 19.5905 8.9783H28.0505C28.1105 7.9823 27.9485 7.1483 27.5645 6.4763C27.1925 5.8043 26.6765 5.3063 26.0165 4.9823C25.3685 4.6463 24.6665 4.4783 23.9105 4.4783Z" fill="#6B705C"/>
<path d="M8.92773 9.1403C8.92773 8.1203 9.12573 7.2323 9.52173 6.4763C9.92973 5.7203 10.4877 5.1443 11.1957 4.7483C11.9037 4.3523 12.7077 4.1543 13.6077 4.1543C14.8437 4.1543 15.8517 4.4723 16.6317 5.1083C17.4237 5.7323 17.9037 6.5543 18.0717 7.5743H17.7117C17.5557 6.6143 17.1057 5.8583 16.3617 5.3063C15.6177 4.7543 14.6997 4.4783 13.6077 4.4783C12.8277 4.4783 12.1077 4.6523 11.4477 5.0003C10.7997 5.3363 10.2777 5.8523 9.88173 6.5483C9.48573 7.2443 9.28773 8.1083 9.28773 9.1403C9.28773 10.1723 9.48573 11.0363 9.88173 11.7323C10.2777 12.4283 10.7997 12.9503 11.4477 13.2983C12.1077 13.6343 12.8277 13.8023 13.6077 13.8023C14.6997 13.8023 15.6177 13.5263 16.3617 12.9743C17.1057 12.4223 17.5557 11.6663 17.7117 10.7063H18.0717C17.9037 11.7263 17.4237 12.5543 16.6317 13.1903C15.8517 13.8143 14.8437 14.1263 13.6077 14.1263C12.7077 14.1263 11.9037 13.9283 11.1957 13.5323C10.4877 13.1363 9.92973 12.5603 9.52173 11.8043C9.12573 11.0483 8.92773 10.1603 8.92773 9.1403Z" fill="#6B705C"/>
<path d="M4.20137 14.1261C3.39737 14.1261 2.69537 13.9821 2.09537 13.6941C1.50737 13.4061 1.05137 13.0281 0.727367 12.5601C0.403367 12.0801 0.211367 11.5641 0.151367 11.0121H0.511367C0.571367 11.4321 0.721367 11.8521 0.961367 12.2721C1.21337 12.6921 1.60337 13.0521 2.13137 13.3521C2.67137 13.6521 3.36137 13.8021 4.20137 13.8021C4.87337 13.8021 5.46737 13.6761 5.98337 13.4241C6.49937 13.1601 6.89537 12.8121 7.17137 12.3801C7.44737 11.9481 7.58537 11.4681 7.58537 10.9401C7.58537 10.2561 7.42937 9.71615 7.11737 9.32015C6.80537 8.91215 6.41537 8.61215 5.94737 8.42015C5.49137 8.22815 4.87337 8.03015 4.09337 7.82615C3.27737 7.61015 2.62337 7.39415 2.13137 7.17815C1.63937 6.96215 1.21937 6.63215 0.871367 6.18815C0.535367 5.73215 0.367367 5.12015 0.367367 4.35215C0.367367 3.80015 0.517367 3.28415 0.817367 2.80415C1.12937 2.31215 1.56737 1.92215 2.13137 1.63415C2.70737 1.34615 3.36137 1.20215 4.09337 1.20215C4.83737 1.20215 5.47937 1.33415 6.01937 1.59815C6.55937 1.86215 6.97937 2.19815 7.27937 2.60615C7.59137 3.00215 7.79537 3.42215 7.89137 3.86615H7.53137C7.44737 3.51815 7.27337 3.16415 7.00937 2.80415C6.74537 2.44415 6.36737 2.14415 5.87537 1.90415C5.38337 1.65215 4.78937 1.52615 4.09337 1.52615C3.48137 1.52615 2.91737 1.64615 2.40137 1.88615C1.89737 2.11415 1.48937 2.44415 1.17737 2.87615C0.877367 3.29615 0.727367 3.78815 0.727367 4.35215C0.727367 5.04815 0.883367 5.60615 1.19537 6.02615C1.51937 6.43415 1.91537 6.74015 2.38337 6.94415C2.85137 7.13615 3.47537 7.33415 4.25537 7.53815C5.07137 7.75415 5.71937 7.97015 6.19937 8.18615C6.69137 8.39015 7.10537 8.71415 7.44137 9.15815C7.77737 9.59015 7.94537 10.1841 7.94537 10.9401C7.94537 11.4681 7.80137 11.9781 7.51337 12.4701C7.23737 12.9621 6.81737 13.3641 6.25337 13.6761C5.68937 13.9761 5.00537 14.1261 4.20137 14.1261Z" fill="#6B705C"/>
</svg>
