<svg width="16" height="16" viewBox="0 0 16 16" fill="none" xmlns="http://www.w3.org/2000/svg">
<path d="M10.3756 8.3284L10.7319 7.97764L10.3756 8.3284ZM6.49996 4C6.49996 3.17157 7.17153 2.5 7.99996 2.5V1.5C6.61925 1.5 5.49996 2.61929 5.49996 4H6.49996ZM6.49996 7.50021V4H5.49996V7.50021H6.49996ZM5.16663 10.6667C5.16663 9.89218 5.47672 9.1911 5.98066 8.67916L5.268 7.97764C4.5874 8.66905 4.16663 9.61921 4.16663 10.6667H5.16663ZM7.99996 13.5C6.43515 13.5 5.16663 12.2315 5.16663 10.6667H4.16663C4.16663 12.7838 5.88287 14.5 7.99996 14.5V13.5ZM10.8333 10.6667C10.8333 12.2315 9.56477 13.5 7.99996 13.5V14.5C10.1171 14.5 11.8333 12.7838 11.8333 10.6667H10.8333ZM10.0193 8.67916C10.5232 9.1911 10.8333 9.89218 10.8333 10.6667H11.8333C11.8333 9.61921 11.4125 8.66905 10.7319 7.97764L10.0193 8.67916ZM9.49996 4V7.50021H10.5V4H9.49996ZM7.99996 2.5C8.82839 2.5 9.49996 3.17157 9.49996 4H10.5C10.5 2.61929 9.38067 1.5 7.99996 1.5V2.5ZM10.7319 7.97764C10.574 7.81723 10.5 7.64685 10.5 7.50021H9.49996C9.49996 7.98257 9.73591 8.3913 10.0193 8.67916L10.7319 7.97764ZM5.49996 7.50021C5.49996 7.64685 5.42591 7.81723 5.268 7.97764L5.98066 8.67916C6.26401 8.3913 6.49996 7.98257 6.49996 7.50021H5.49996Z" fill="#6B705C"/>
<ellipse cx="7.99996" cy="10.6666" rx="1.33333" ry="1.33333" fill="#6B705C"/>
</svg>
