<svg width="16" height="16" viewBox="0 0 16 16" fill="none" xmlns="http://www.w3.org/2000/svg">
<path d="M8.00002 11.9999C7.70651 11.9999 7.4212 11.9031 7.18834 11.7244C6.95548 11.5457 6.78809 11.2952 6.71212 11.0117" stroke="#6B705C" stroke-linecap="round"/>
<path d="M6.94956 3.11904C7.11382 2.83979 7.19595 2.70017 7.27449 2.61737C7.66884 2.20163 8.3312 2.20163 8.72555 2.61737C8.80409 2.70017 8.88622 2.83979 9.05048 3.11904L10.1627 5.0098C10.94 6.3312 11.5465 7.7459 11.9677 9.21998V9.21998C12.6521 11.6154 10.8534 13.9999 8.36214 13.9999H7.6379C5.14662 13.9999 3.34798 11.6154 4.03238 9.21998V9.21998C4.45355 7.7459 5.06005 6.33121 5.83735 5.0098L6.94956 3.11904Z" stroke="#6B705C"/>
</svg>
